<svg fill="none" height="248" viewBox="0 0 250 248" width="250" xmlns="http://www.w3.org/2000/svg"><path d="m78.62 225.59c94.34 0 145.94-78.16 145.94-145.9399 0-2.22 0-4.4299-.15-6.6299 10.038-7.2609 18.704-16.2513 25.59-26.55-9.361 4.148-19.292 6.8682-29.46 8.0699 10.707-6.4101 18.721-16.4922 22.55-28.3699-10.068 5.9745-21.084 10.1851-32.57 12.45-7.733-8.2232-17.961-13.6684-29.101-15.4929-11.14-1.8246-22.571.0732-32.524 5.3997-9.952 5.3264-17.872 13.7845-22.533 24.0655s-5.804 21.8117-3.252 32.8076c-20.392-1.0223-40.342-6.3216-58.5536-15.554-18.2116-9.2325-34.278-22.1915-47.1564-38.0359-6.5591 11.2916-8.568 24.6586-5.6177 37.3793 2.9503 12.7208 10.6379 23.8389 21.4977 31.0905-8.1626-.242-16.1472-2.4437-23.28-6.4198v.6499c.0032 11.8419 4.1026 23.3189 11.6028 32.4829s17.9395 15.452 29.5472 17.797c-7.5513 2.06-15.4742 2.361-23.16.88 3.2776 10.192 9.6586 19.104 18.2507 25.491s18.9654 9.928 29.6693 10.129c-18.1626 14.274-40.5994 22.023-63.7 22-4.08097-.008-8.15796-.255-12.21-.74 23.4564 15.053 50.7491 23.037 78.62 23" fill="#25282b"/></svg>