<svg height="230" viewBox="0 0 230 230" width="230" xmlns="http://www.w3.org/2000/svg"><path d="m200.000228 85c31.231897 0 35.148152.132383 47.414125.6920437 12.240409.5582912 20.600169 2.5024958 27.915017 5.3455356 7.562266 2.9384469 13.97554 6.8706795 20.369184 13.2638667 6.393187 6.393644 10.32542 12.806918 13.264323 20.369184 2.842583 7.314848 4.786788 15.674608 5.345079 27.915017.559661 12.265973.692044 16.182228.692044 47.414581 0 31.231897-.132383 35.148152-.692044 47.414125-.558291 12.240409-2.502496 20.600169-5.345079 27.915017-2.938903 7.562266-6.871136 13.97554-13.264323 20.369184-6.393644 6.393187-12.806918 10.32542-20.369184 13.264323-7.314848 2.842583-15.674608 4.786788-27.915017 5.345079-12.265973.559661-16.182228.692044-47.414125.692044-31.232353 0-35.148608-.132383-47.414581-.692044-12.240409-.558291-20.600169-2.502496-27.915017-5.345079-7.562266-2.938903-13.97554-6.871136-20.369184-13.264323-6.3931872-6.393644-10.3254198-12.806918-13.2638667-20.369184-2.8430398-7.314848-4.7872444-15.674608-5.3455356-27.915017-.5596607-12.265973-.6920437-16.182228-.6920437-47.414125 0-31.232353.132383-35.148608.6920437-47.414581.5582912-12.240409 2.5024958-20.600169 5.3455356-27.915017 2.9384469-7.562266 6.8706795-13.97554 13.2638667-20.369184 6.393644-6.3931872 12.806918-10.3254198 20.369184-13.2638667 7.314848-2.8430398 15.674608-4.7872444 27.915017-5.3455356 12.265973-.5596607 16.182228-.6920437 47.414581-.6920437zm0 20.720684c-30.706473 0-34.343811.117318-46.470096.670588-11.212387.511273-17.30155 2.384721-21.35384 3.959622-5.367904 2.086174-9.198795 4.578171-13.222783 8.602615-4.024444 4.023988-6.516441 7.854879-8.602615 13.222783-1.574901 4.05229-3.448349 10.141453-3.959622 21.35384-.55327 12.126285-.670588 15.763623-.670588 46.470096 0 30.706017.117318 34.343355.670588 46.46964.511273 11.212387 2.384721 17.30155 3.959622 21.35384 2.086174 5.367904 4.578627 9.198795 8.602615 13.222783 4.023988 4.024444 7.854879 6.516441 13.222783 8.602615 4.05229 1.574901 10.141453 3.448349 21.35384 3.959622 12.124916.55327 15.761341.670588 46.470096.670588 30.708299 0 34.345181-.117318 46.46964-.670588 11.212387-.511273 17.30155-2.384721 21.35384-3.959622 5.367904-2.086174 9.198795-4.578171 13.222783-8.602615 4.024444-4.023988 6.516441-7.854879 8.602615-13.222783 1.574901-4.05229 3.448349-10.141453 3.959622-21.35384.55327-12.126285.670588-15.763623.670588-46.46964 0-30.706473-.117318-34.343811-.670588-46.470096-.511273-11.212387-2.384721-17.30155-3.959622-21.35384-2.086174-5.367904-4.578171-9.198795-8.602615-13.222783-4.023988-4.024444-7.854879-6.516441-13.222783-8.602615-4.05229-1.574901-10.141453-3.448349-21.35384-3.959622-12.126285-.55327-15.763623-.670588-46.46964-.670588zm0 132.612649c21.170786 0 38.333105-17.162319 38.333105-38.333105 0-21.171242-17.162319-38.333561-38.333105-38.333561-21.171242 0-38.333561 17.162319-38.333561 38.333561 0 21.170786 17.162319 38.333105 38.333561 38.333105zm0-97.38735c32.614615 0 59.053789 26.439174 59.053789 59.054245 0 32.614615-26.439174 59.053789-59.053789 59.053789-32.615071 0-59.054245-26.439174-59.054245-59.053789 0-32.615071 26.439174-59.054245 59.054245-59.054245zm75.187172-2.333137c0 7.621611-6.178635 13.79979-13.800246 13.79979-7.621154 0-13.79979-6.178179-13.79979-13.79979s6.178636-13.800246 13.79979-13.800246c7.621611 0 13.800246 6.178635 13.800246 13.800246z" fill="#fff" fill-rule="evenodd" transform="translate(-85 -85)"/></svg>