<svg fill="none" height="45" viewBox="0 0 173 45" width="173" xmlns="http://www.w3.org/2000/svg" xmlns:xlink="http://www.w3.org/1999/xlink"><clipPath id="a"><path d="m0 0h173v44.41h-173z"/></clipPath><g clip-path="url(#a)" fill="#fff"><path d="m64.0772 16.7563v3.1377c0 .7969.0553 1.306.166 1.5273.1107.2214.3984.3321.8633.3321h1.6269l.1328-.0166.5147-.0166.6475-.0498c.8522 0 1.566-.321 2.1416-.9629.5865-.642.8798-1.3614.8798-2.1582v-.5479c0-.8411-.2933-1.555-.8798-2.1416-.5866-.5866-1.3558-.8799-2.3077-.8799-.177-.0221-.3099-.0332-.3984-.0332l-.6475-.0332h-1.0293c-.7968 0-1.2838.0996-1.4609.2989-.166.1881-.249.7028-.249 1.5439zm-.0166 13.6299c0 1.0071.1273 1.6048.3818 1.793.2656.177.9684.2656 2.1084.2656h1.1953c1.4942 0 2.5843-.3431 3.2705-1.0293.6973-.6973 1.0459-1.6048 1.0459-2.7227v-.3154c-.0221-.1992-.0332-.3486-.0332-.4482 0-.8412-.3652-1.5883-1.0957-2.2413-.7194-.664-1.6103-.9961-2.6728-.9961-.1992-.0221-.3487-.0332-.4483-.0332l-.7304-.0332h-1.0127c-1.0293 0-1.6215.1163-1.7764.3487-.1439.2324-.2158.9241-.2158 2.0752v1.9258l-.0166.5644zm2.7226 5.0967h-.415l-.4316-.0166h-.8301l-1.2119-.0166c-2.2468 0-3.5804-.0443-4.001-.1329-.6862-.1438-1.0293-.4648-1.0293-.9628 0-.2767.1217-.8412.3652-1.6934s.3653-1.9369.3653-3.2539l.0332-2.0254v-8.998c0-1.129-.072-2.031-.2159-2.7061l-.5976-2.2246c0-.6419.1992-1.0404.5976-1.1953.4095-.166 1.2064-.249 2.3907-.249l3.6689-.0831 1.2451-.0166h.4151c4.2168 0 6.8453 1.1898 7.8857 3.5694.2767.6308.415 1.4222.415 2.374 0 .9408-.1826 1.7487-.5478 2.4238-.3542.6641-.6309 1.0902-.8301 1.2784-.1992.1881-.498.4482-.8965.7802-.3984.3321-.5976.5091-.5976.5313.011.0221.3929.2711 1.1455.747 1.9147 1.1954 2.8721 2.85 2.8721 4.9639-.0111 4.6042-3.2761 6.9063-9.795 6.9063z"/><path d="m85.6645 32.6772c.6198 0 1.1787-.249 1.6768-.7471.498-.498.7471-.9905.7471-1.4775.0221-.1328.0332-.2269.0332-.2822l.0332-.5811c0-.0996 0-.1992 0-.2988l.0166-.3819v-.2988c0-.7083-.2989-1.0625-.8965-1.0625h-.5811l-.0996.0166h-.1992c-1.2728 0-2.2689.2269-2.9883.6807-.7194.4427-1.0791 1.0348-1.0791 1.7764v.3984c0 .6087.1937 1.14.5811 1.5937.3984.4427.8743.6641 1.4277.6641l.4814.0498h.3819c.1992-.0332.3541-.0498.4648-.0498zm7.7529 1.2783c-.011.9297-.7692 1.3946-2.2744 1.3946-.7526 0-1.4166-.1495-1.9922-.4483-.5755-.3099-1.0846-.4648-1.5273-.4648-.0332 0-.581.2047-1.6435.6142-1.0625.3985-2.042.5977-2.9385.5977-1.5052 0-2.7282-.4261-3.669-1.2783-.9297-.8523-1.3945-1.9646-1.3945-3.337v-.3984c0-3.1211 2.4072-4.903 7.2217-5.3457.8743-.0775 1.4831-.1715 1.8262-.2822.6529-.2214.9794-.7028.9794-1.4444 0-.7526-.3043-1.3392-.913-1.7597-.3653-.2546-.8523-.3819-1.461-.3819s-1.4941.2546-2.6562.7637c-1.1511.4981-1.9645.7471-2.4405.7471-.4759 0-.8466-.166-1.1123-.4981-.2656-.332-.3984-.736-.3984-1.2119 0-.8079.6475-1.4831 1.9424-2.0254 1.306-.5423 2.7282-.8134 4.2666-.8134 2.944 0 4.9472.7636 6.0097 2.291.476.6751.7803 1.4388.9131 2.291.1439.8411.2159 2.2633.2159 4.2666 0 1.9922.0387 3.2041.1162 3.6357.0885.4317.2656.9076.5312 1.4278.2656.5091.3984.9463.3984 1.3115z"/><path d="m97.8056 18.8979h.581c1.1732.0111 1.9814.3929 2.4234 1.1455.144.2435.283.3652.415.3652.144 0 .427-.1328.847-.3984.421-.2656.863-.5091 1.328-.7305.465-.2324 1.063-.3486 1.793-.3486.731 0 1.273.166 1.627.4981.365.3209.548.7249.548 1.2119 0 .4759-.155.9407-.465 1.3945-.31.4427-.714.6641-1.212.6641l-2.042-.2159c-.343 0-.747.1439-1.212.4317-.453.2877-.819.7415-1.095 1.3613-.277.6198-.415 1.5938-.415 2.9219 0 1.317.149 2.54.448 3.6689.299 1.1068.448 1.9701.448 2.5899 0 1.2396-1.134 1.8593-3.4032 1.8593h-.3154c-1.5384 0-2.3076-.581-2.3076-1.7431 0-.3431.1107-.8522.332-1.5274.2324-.6862.3708-1.2451.4151-1.6767.0553-.4427.083-1.6712.083-3.6856 0-2.0143-.0388-3.2373-.1162-3.6689-.0775-.4427-.238-.8965-.4815-1.3613-.2435-.4759-.3652-.9131-.3652-1.3116 0-.3984.1881-.736.5644-1.0127.3763-.2877.902-.4316 1.5772-.4316z"/><path d="m111.192 35.0678c-.808 0-1.373-.1439-1.694-.4316-.321-.2878-.481-.7858-.481-1.4942 0-.177.055-.5423.166-1.0957.21-1.0514.315-2.2744.315-3.6689v-4.1504l.017-1.6934v-4.7812c0-1.5052-.033-2.4183-.1-2.7393-.055-.3209-.166-.7858-.332-1.3945-.166-.6198-.249-.9906-.249-1.1123v-.4648c0-.2546.194-.5036.581-.7471.399-.2546 1.196-.3818 2.391-.3818.863 0 1.411.3154 1.644.9462.232.6198.348 2.4017.348 5.3457 0 2.9441.033 4.7204.1 5.3291.11.974.393 1.461.846 1.461.388 0 1.152-.6641 2.291-1.9922.277-.321.615-.7747 1.013-1.3613.399-.5977.792-1.0349 1.179-1.3116.387-.2766 1.018-.415 1.892-.415 1.517 0 2.275.2822 2.275.8467 0 .5534-.769 1.5827-2.308 3.0879-1.538 1.5052-2.307 2.5954-2.307 3.2705 0 .2545.963 1.6657 2.888 4.2334 1.926 2.5677 2.889 3.9844 2.889 4.25 0 .4316-.415.6474-1.245.6474h-.515c-1.594 0-2.706-.3154-3.337-.9462-.254-.2546-.625-.8689-1.112-1.8428-.487-.974-1.057-1.8981-1.71-2.7725-.653-.8854-1.212-1.3281-1.677-1.3281-.144 0-.343.1881-.597.5644-.244.3653-.366 1.0238-.366 1.9756l.216 2.3077c0 1.2395-1.007 1.8593-3.021 1.8593z"/><path d="m130.687 23.7456c0 1.2727.166 2.4349.498 3.4863.343 1.0404.736 1.8704 1.179 2.4902.454.6087 1.14 1.1455 2.059 1.6104.918.4648 1.876.6972 2.872.6972 1.007 0 1.793-.2767 2.357-.83.576-.5534.863-1.2286.863-2.0254 0-.7969-.376-1.5661-1.128-2.3076-.742-.7527-1.113-1.3448-1.113-1.7764 0-.155.078-.3099.233-.4649.398-.3984 1.3-.5976 2.706-.5976 1.416 0 2.418.1439 3.005.4316.586.2767.879.7582.879 1.4444 0 4.3496-.376 6.9671-1.128 7.8525-.476.5645-1.428 1.0348-2.856 1.4111-1.417.3763-2.933.5645-4.549.5645-3.32 0-5.893-1.057-7.719-3.1709-.808-.9408-1.467-2.197-1.976-3.7686-.509-1.5826-.764-3.2981-.764-5.1464 0-5.6778 2.192-9.3855 6.574-11.1231 1.273-.5091 2.734-.7637 4.383-.7637h.648c2.136 0 3.647.2269 4.532.6807.885.4427 1.483.9131 1.793 1.4111.31.487.465.8633.465 1.1289 0 .808-.155 1.3614-.465 1.6602-.299.2878-.565.4316-.797.4316-.221 0-1.057-.2822-2.507-.8466-1.439-.5645-2.667-.8467-3.685-.8467-2.114 0-3.741.7858-4.881 2.3574-.985 1.3503-1.478 3.3535-1.478 6.0098z"/><path d="m150.15 18.8979h.581c1.173.0111 1.981.3929 2.424 1.1455.143.2435.282.3652.415.3652.143 0 .426-.1328.846-.3984.421-.2656.864-.5091 1.328-.7305.465-.2324 1.063-.3486 1.793-.3486.731 0 1.273.166 1.627.4981.366.3209.548.7249.548 1.2119 0 .4759-.155.9407-.465 1.3945-.31.4427-.714.6641-1.212.6641l-2.042-.2159c-.343 0-.747.1439-1.212.4317-.453.2877-.819.7415-1.095 1.3613-.277.6198-.415 1.5938-.415 2.9219 0 1.317.149 2.54.448 3.6689.299 1.1068.448 1.9701.448 2.5899 0 1.2396-1.134 1.8593-3.403 1.8593h-.316c-1.538 0-2.307-.581-2.307-1.7431 0-.3431.111-.8522.332-1.5274.232-.6862.371-1.2451.415-1.6767.055-.4427.083-1.6712.083-3.6856 0-2.0143-.039-3.2373-.116-3.6689-.078-.4427-.238-.8965-.482-1.3613-.243-.4759-.365-.9131-.365-1.3116 0-.3984.188-.736.564-1.0127.377-.2877.903-.4316 1.578-.4316z"/><path d="m163.27 18.8979h.581c1.173.0111 1.981.3929 2.424 1.1455.144.2435.282.3652.415.3652.144 0 .426-.1328.847-.3984.42-.2656.863-.5091 1.328-.7305.465-.2324 1.062-.3486 1.793-.3486.73 0 1.273.166 1.627.4981.365.3209.548.7249.548 1.2119 0 .4759-.155.9407-.465 1.3945-.31.4427-.714.6641-1.212.6641l-2.042-.2159c-.343 0-.747.1439-1.212.4317-.454.2877-.819.7415-1.096 1.3613-.276.6198-.415 1.5938-.415 2.9219 0 1.317.15 2.54.449 3.6689.298 1.1068.448 1.9701.448 2.5899 0 1.2396-1.135 1.8593-3.404 1.8593h-.315c-1.538 0-2.308-.581-2.308-1.7431 0-.3431.111-.8522.332-1.5274.233-.6862.371-1.2451.415-1.6767.056-.4427.083-1.6712.083-3.6856 0-2.0143-.038-3.2373-.116-3.6689-.077-.4427-.238-.8965-.481-1.3613-.244-.4759-.365-.9131-.365-1.3116 0-.3984.188-.736.564-1.0127.376-.2877.902-.4316 1.577-.4316z"/><path d="m12.3964.881818c1.0502-.8149123 2.2601-1.02957 3.5892-.7889723.9112.1651723 1.7493.5342423 2.5401 1.0340443.6799.43151 1.291.94867 1.844 1.53714 1.0159 1.08133 1.7774 2.31188 2.2887 3.69032.3544.95505.5572 1.93314.5725 2.93655.0125.8929-.1237 1.7526-.4794 2.5592-.25.5663-.5915 1.0642-1.0535 1.4721-.7986.7073-1.7521 1.0324-2.8382 1.0208-.9263-.0105-1.8048-.2647-2.6478-.6755-.5895-.2875-1.1358-.6451-1.647-1.0583-.3509-.2827-.6816-.5862-.9891-.9131-.7263-.771-1.3272-1.6279-1.8032-2.56741-.5074-.99943-.8533-2.04267-.9984-3.13984-.122-.923-.0957-1.83277.1397-2.72067.1726-.65275.4568-1.24753.8714-1.77389.0058-.02267.0251-.03467.0387-.05038.0149-.01497.0299-.02993.0445-.04455.0187-.02449.0526-.0365.0556-.07171.1027-.10265.2036-.20357.3056-.30552.0362-.0034.0475-.036632.0717-.055642.0153-.01531.0296-.02958.0449-.04489.0146-.0139.0266-.03393.05-.03978zm-10.47174 32.773982c-.27319-.3009-.50649-.6311-.71281-.9793-.401448-.6758-.667788-1.3913-.738258-2.1616-.07803-.8604.10192-1.6474.558578-2.349.37133-.5692.87782-.9908 1.48342-1.2974.69668-.3521 1.4534-.5228 2.24709-.5536 1.23105-.0499 2.41688.2178 3.56647.7315.6017.2693 1.16773.6051 1.69635 1.0064.2566.1946.4985.4068.7309.6306.4406.4255.8257.8924 1.1438 1.4123.4244.6936.7067 1.429.7811 2.2256.0851.9142-.1208 1.7419-.6331 2.4683-.3759.5331-.8758.927-1.4633 1.2141-.79122.3849-1.64394.54-2.53947.5323-.87237-.0063-1.72658-.1726-2.56213-.4719-.8194-.2937-1.58752-.699-2.29217-1.2289-.12431-.0939-.24597-.1905-.3686-.2855-.06072-.0389-.10731-.0941-.168-.1324-.02598-.0154-.04267-.038-.06506-.0584-.02995-.0227-.04681-.062-.0883-.0731l-.40004-.4001c-.01308-.0599-.06533-.0891-.10164-.1306-.02715-.0312-.06495-.0551-.07483-.0993zm.65752-13.1511c-.84443-.851-1.49267-1.7318-1.954988-2.7408-.350059-.7625-.5756299-1.5543-.61917891-2.3865-.04805199-.8974.11742791-1.7409.56633891-2.5089.448148-.7688 1.091858-1.3211 1.900388-1.6884.71262-.323 1.47153-.4676 2.26043-.4811 1.25868-.0226 2.46346.265 3.62672.7746.73955.3243 1.43239.7311 2.08081 1.2163.3676.2751.7184.5724 1.0511.8922.4174.4037.8016.8376 1.1415 1.3083.7111.9827 1.223 2.0486 1.4265 3.24.1253.74.11 1.4708-.0901 2.1864-.2241.7993-.6516 1.4674-1.2777 2.0005-.5655.4824-1.2263.7881-1.9541.9615-.94902.2268-1.91194.2158-2.8812.0389-1.15043-.2108-2.22581-.6405-3.23892-1.2449-.55433-.3304-1.07571-.7088-1.56445-1.1325-.18419-.1582-.36769-.3193-.47315-.4356zm31.44322-18.05146c.0307.03061.0616.06158.0926.09255.7314.80413 1.2419 1.73912 1.5885 2.77117.2705.80979.4186 1.64624.429 2.50852.0142 1.10749-.1826 2.17912-.6742 3.19572-.2945.609-.6823 1.1516-1.1888 1.6068-.7485.6711-1.6173 1.0416-2.6072 1.0941-.8177.0429-1.578-.1497-2.293-.5072-.6417-.3196-1.2022-.75-1.6904-1.2709-1.0742-1.1447-1.7203-2.5156-2.0157-4.06618-.1005-.52435-.1459-1.05603-.1373-1.59251.02-1.10162.2452-2.15864.7687-3.15362.2987-.56477.6791-1.06686 1.1653-1.48485.7423-.63881 1.5975-.988032 2.564-1.031902.872-.03948 1.6736.18712 2.4243.590472.4148.22285.797.49307 1.1407.81432.031.03097.0623.06229.0933.09325.1097.11694.2233.22988.3402.34026zm-11.1188 14.97506 12.4397-.0273c2.3978-.006 4.6502.9227 6.3419 2.6145 1.6915 1.6915 2.62 3.9441 2.6145 6.3419-.005 2.3978-.9439 4.6535-2.6428 6.3524s-4.4521 2.1347-6.8499 2.1402h-.07v.07c-.005 2.3978-.4405 5.1502-2.1397 6.8494-1.6989 1.6989-3.9551 2.6378-6.3527 2.6431-4.9492.0111-8.9672-4.0069-8.9563-8.9564l.0276-12.4403c.0068-3.0831 2.5045-5.5808 5.5877-5.5875z"/></g></svg>