<svg fill="none" height="230" viewBox="0 0 230 230" width="230" xmlns="http://www.w3.org/2000/svg"><path clip-rule="evenodd" d="m115 0c31.232 0 35.148.132386 47.414.692047 12.241.558293 20.601 2.502493 27.915 5.345533 7.563 2.93845 13.976 6.87072 20.37 13.26382 6.393 6.3937 10.325 12.807 13.264 20.3692 2.842 7.3149 4.787 15.6746 5.345 27.915.56 12.266.692 16.1823.692 47.4144 0 31.232-.132 35.148-.692 47.414-.558 12.241-2.503 20.601-5.345 27.915-2.939 7.563-6.871 13.976-13.264 20.37-6.394 6.393-12.807 10.325-20.37 13.264-7.314 2.842-15.674 4.787-27.915 5.345-12.266.56-16.182.692-47.414.692-31.2321 0-35.1484-.132-47.4144-.692-12.2404-.558-20.6001-2.503-27.915-5.345-7.5622-2.939-13.9755-6.871-20.3692-13.264-6.3931-6.394-10.32537-12.807-13.26382-20.37-2.84304-7.314-4.78724-15.674-5.345533-27.915-.559661-12.266-.692047-16.182-.692047-47.414 0-31.2321.132386-35.1484.692047-47.4144.558293-12.2404 2.502493-20.6001 5.345533-27.915 2.93845-7.5622 6.87072-13.9755 13.26382-20.3692 6.3937-6.3931 12.807-10.32537 20.3692-13.26382 7.3149-2.84304 15.6746-4.78724 27.915-5.345533 12.266-.559661 16.1823-.692047 47.4144-.692047zm0 20.7207c-30.7062 0-34.3436.1173-46.4699.6706-11.2124.5112-17.3015 2.3847-21.3538 3.9596-5.3679 2.0862-9.1988 4.5782-13.2228 8.6026-4.0244 4.024-6.5164 7.8549-8.6026 13.2228-1.5749 4.0523-3.4484 10.1414-3.9596 21.3538-.5533 12.1263-.6706 15.7637-.6706 46.4699 0 30.706.1173 34.344.6706 46.47.5112 11.212 2.3847 17.301 3.9596 21.354 2.0862 5.368 4.5786 9.198 8.6026 13.222 4.024 4.025 7.8549 6.517 13.2228 8.603 4.0523 1.575 10.1414 3.448 21.3538 3.96 12.125.553 15.7614.67 46.4699.67 30.709 0 34.345-.117 46.47-.67 11.212-.512 17.301-2.385 21.354-3.96 5.368-2.086 9.198-4.578 13.222-8.603 4.025-4.024 6.517-7.854 8.603-13.222 1.575-4.053 3.448-10.142 3.96-21.354.553-12.126.67-15.764.67-46.47 0-30.7062-.117-34.3436-.67-46.4699-.512-11.2124-2.385-17.3015-3.96-21.3538-2.086-5.3679-4.578-9.1988-8.603-13.2228-4.024-4.0244-7.854-6.5164-13.222-8.6026-4.053-1.5749-10.142-3.4484-21.354-3.9596-12.126-.5533-15.764-.6706-46.47-.6706zm0 132.6123c21.171 0 38.333-17.162 38.333-38.333s-17.162-38.3333-38.333-38.3333-38.3333 17.1623-38.3333 38.3333 17.1623 38.333 38.3333 38.333zm0-97.387c32.615 0 59.054 26.4392 59.054 59.054 0 32.615-26.439 59.054-59.054 59.054-32.6148 0-59.054-26.439-59.054-59.054 0-32.6148 26.4392-59.054 59.054-59.054zm75.187-2.3332c0 7.6216-6.178 13.7998-13.8 13.7998-7.621 0-13.8-6.1782-13.8-13.7998s6.179-13.8002 13.8-13.8002c7.622 0 13.8 6.1786 13.8 13.8002z" fill="#25282b" fill-rule="evenodd"/></svg>