<svg fill="none" height="40" viewBox="0 0 168 40" width="168" xmlns="http://www.w3.org/2000/svg" xmlns:xlink="http://www.w3.org/1999/xlink"><clipPath id="a"><path d="m.830002 0h167.17v39.63h-167.17z"/></clipPath><g clip-path="url(#a)" fill="#fff"><path d="m58.1053 13.0463v3.1377c0 .7969.0553 1.306.166 1.5274.1106.2213.3984.332.8633.332h1.6269l.1328-.0166.5147-.0166.6474-.0498c.8522 0 1.5661-.321 2.1416-.9629.5866-.6419.8799-1.3613.8799-2.1582v-.5479c0-.8411-.2933-1.555-.8799-2.1416-.5866-.5865-1.3558-.8798-2.3076-.8798-.1771-.0222-.3099-.0332-.3984-.0332l-.6475-.0332h-1.0293c-.7969 0-1.2838.0996-1.4609.2988-.166.1881-.249.7028-.249 1.5439zm-.0166 13.6299c0 1.0072.1272 1.6048.3818 1.793.2656.1771.9684.2656 2.1084.2656h1.1953c1.4941 0 2.5843-.3431 3.2705-1.0293.6973-.6973 1.0459-1.6048 1.0459-2.7227v-.3154c-.0221-.1992-.0332-.3486-.0332-.4482 0-.8412-.3652-1.5882-1.0957-2.2412-.7194-.6641-1.6104-.9961-2.6729-.9961-.1992-.0222-.3486-.0332-.4482-.0332l-.7305-.0332h-1.0127c-1.0293 0-1.6214.1162-1.7763.3486-.1439.2324-.2158.9242-.2158 2.0752v1.9258l-.0166.5644zm2.7226 5.0967h-.415l-.4317-.0166h-.83l-1.212-.0166c-2.2467 0-3.5804-.0443-4.0009-.1328-.6862-.1439-1.0293-.4649-1.0293-.9629 0-.2767.1217-.8412.3652-1.6934s.3652-1.9368.3652-3.2539l.0332-2.0254v-8.998c0-1.1289-.0719-2.0309-.2158-2.7061l-.5976-2.22459c0-.64192.1992-1.04036.5976-1.19531.4095-.16601 1.2064-.24902 2.3906-.24902l3.669-.08301 1.2451-.0166h.415c4.2168 0 6.8454 1.18978 7.8858 3.56933.2767.6309.415 1.4222.415 2.374 0 .9408-.1826 1.7487-.5478 2.4239-.3542.664-.6309 1.0901-.8301 1.2783-.1992.1881-.4981.4482-.8965.7803-.3984.332-.5976.5091-.5976.5312.011.0221.3929.2712 1.1455.7471 1.9147 1.1953 2.872 2.8499 2.872 4.9638-.011 4.6042-3.276 6.9063-9.7949 6.9063z"/><path d="m79.8826 28.9672c.6198 0 1.1787-.249 1.6768-.747.498-.4981.747-.9906.747-1.4776.0222-.1328.0332-.2269.0332-.2822l.0332-.5811c0-.0996 0-.1992 0-.2988l.0166-.3818v-.2989c0-.7083-.2988-1.0625-.8964-1.0625h-.5811l-.0996.0166h-.1992c-1.2728 0-2.2689.2269-2.9883.6807-.7194.4427-1.0791 1.0348-1.0791 1.7764v.3984c0 .6087.1937 1.14.581 1.5938.3985.4427.8744.664 1.4278.664l.4814.0498h.3819c.1992-.0332.3541-.0498.4648-.0498zm7.7529 1.2783c-.011.9297-.7692 1.3946-2.2744 1.3946-.7526 0-1.4167-.1494-1.9922-.4483-.5755-.3099-1.0846-.4648-1.5273-.4648-.0332 0-.5811.2047-1.6436.6142-1.0625.3985-2.042.5977-2.9384.5977-1.5053 0-2.7282-.4261-3.669-1.2783-.9297-.8522-1.3945-1.9645-1.3945-3.3369v-.3985c0-3.1211 2.4072-4.903 7.2217-5.3457.8743-.0774 1.483-.1715 1.8261-.2822.653-.2214.9795-.7028.9795-1.4443 0-.7526-.3043-1.3392-.9131-1.7598-.3652-.2546-.8522-.3818-1.4609-.3818s-1.4941.2545-2.6563.7636c-1.151.4981-1.9645.7471-2.4404.7471s-.8467-.166-1.1123-.498c-.2656-.3321-.3984-.736-.3984-1.212 0-.8079.6474-1.483 1.9424-2.0253 1.3059-.5424 2.7281-.8135 4.2666-.8135 2.944 0 4.9472.7637 6.0097 2.291.4759.6751.7803 1.4388.9131 2.291.1439.8412.2158 2.2634.2158 4.2666 0 1.9922.0388 3.2041.1162 3.6358.0886.4316.2657.9075.5313 1.4277.2656.5091.3984.9463.3984 1.3115z"/><path d="m92.2137 15.1879h.581c1.1732.0111 1.9811.3929 2.4238 1.1455.1439.2435.2823.3653.4151.3653.1439 0 .4261-.1328.8467-.3985.4205-.2656.8632-.5091 1.3281-.7304.4648-.2325 1.0625-.3487 1.7929-.3487.7307 0 1.2727.166 1.6267.4981.366.3209.548.7249.548 1.2119 0 .4759-.155.9407-.465 1.3945-.31.4427-.714.6641-1.212.6641l-2.0416-.2158c-.3431 0-.7471.1438-1.2119.4316-.4538.2878-.819.7415-1.0957 1.3613s-.4151 1.5938-.4151 2.9219c0 1.3171.1495 2.54.4483 3.669.2988 1.1067.4482 1.97.4482 2.5898 0 1.2396-1.1344 1.8594-3.4033 1.8594h-.3154c-1.5384 0-2.3076-.5811-2.3076-1.7432 0-.3431.1106-.8522.332-1.5273.2324-.6862.3708-1.2452.415-1.6768.0554-.4427.083-1.6712.083-3.6855 0-2.0144-.0387-3.2373-.1162-3.669-.0774-.4427-.2379-.8965-.4814-1.3613-.2435-.4759-.3652-.9131-.3652-1.3115 0-.3985.1881-.736.5644-1.0127.3763-.2878.902-.4317 1.5772-.4317z"/><path d="m105.79 31.3578c-.808 0-1.373-.1438-1.694-.4316-.32-.2878-.481-.7858-.481-1.4941 0-.1771.055-.5424.166-1.0957.21-1.0515.315-2.2744.315-3.669v-4.1504l.017-1.6933v-4.7813c0-1.5052-.033-2.4183-.1-2.7392-.055-.321-.166-.7858-.332-1.39457-.166-.61979-.249-.99056-.249-1.1123v-.46485c0-.25456.194-.50358.581-.74707.399-.25456 1.196-.38183 2.391-.38183.863 0 1.411.31543 1.644.94628.232.6198.348 2.40174.348 5.34574s.033 4.7203.1 5.3291c.111.9739.393 1.4609.847 1.4609.387 0 1.151-.6641 2.291-1.9922.276-.3209.614-.7747 1.012-1.3613.399-.5977.792-1.0348 1.179-1.3115s1.018-.4151 1.893-.4151c1.516 0 2.274.2823 2.274.8467 0 .5534-.769 1.5827-2.308 3.0879-1.538 1.5052-2.307 2.5954-2.307 3.2705 0 .2546.963 1.6657 2.888 4.2334 1.926 2.5677 2.889 3.9844 2.889 4.25 0 .4316-.415.6475-1.245.6475h-.515c-1.593 0-2.706-.3155-3.337-.9463-.254-.2546-.625-.8688-1.112-1.8428s-1.057-1.8981-1.71-2.7725c-.653-.8854-1.212-1.3281-1.677-1.3281-.143 0-.343.1882-.597.5645-.244.3652-.366 1.0237-.366 1.9756l.216 2.3076c0 1.2396-1.007 1.8593-3.021 1.8593z"/><path d="m125.475 20.0356c0 1.2728.166 2.4349.498 3.4863.344 1.0404.736 1.8705 1.179 2.4902.454.6088 1.14 1.1456 2.059 1.6104.918.4648 1.876.6973 2.872.6973 1.007 0 1.793-.2767 2.357-.8301.576-.5534.863-1.2285.863-2.0254s-.376-1.5661-1.128-2.3076c-.742-.7526-1.113-1.3447-1.113-1.7764 0-.1549.078-.3099.233-.4648.398-.3985 1.3-.5977 2.706-.5977 1.416 0 2.418.1439 3.005.4317.586.2766.88.7581.88 1.4443 0 4.3496-.377 6.9671-1.129 7.8525-.476.5645-1.428 1.0349-2.856 1.4112-1.417.3763-2.933.5644-4.549.5644-3.32 0-5.893-1.057-7.719-3.1709-.808-.9407-1.467-2.1969-1.976-3.7685-.509-1.5827-.764-3.2982-.764-5.1465 0-5.6778 2.192-9.3854 6.575-11.12307 1.272-.50912 2.733-.76367 4.382-.76367h.648c2.136 0 3.647.22688 4.532.68066.885.44271 1.483.91309 1.793 1.41118.31.4869.465.8632.465 1.1289 0 .8079-.155 1.3613-.465 1.6601-.299.2878-.564.4317-.797.4317-.221 0-1.057-.2823-2.507-.8467-1.438-.5645-2.667-.8467-3.685-.8467-2.114 0-3.741.7858-4.881 2.3574-.985 1.3503-1.478 3.3535-1.478 6.0098z"/><path d="m145.128 15.1879h.581c1.173.0111 1.981.3929 2.424 1.1455.143.2435.282.3653.415.3653.144 0 .426-.1328.846-.3985.421-.2656.864-.5091 1.328-.7304.465-.2325 1.063-.3487 1.793-.3487.731 0 1.273.166 1.627.4981.366.3209.548.7249.548 1.2119 0 .4759-.155.9407-.465 1.3945-.31.4427-.713.6641-1.212.6641l-2.042-.2158c-.343 0-.747.1438-1.211.4316-.454.2878-.819.7415-1.096 1.3613s-.415 1.5938-.415 2.9219c0 1.3171.149 2.54.448 3.669.299 1.1067.448 1.97.448 2.5898 0 1.2396-1.134 1.8594-3.403 1.8594h-.315c-1.539 0-2.308-.5811-2.308-1.7432 0-.3431.111-.8522.332-1.5273.232-.6862.371-1.2452.415-1.6768.055-.4427.083-1.6712.083-3.6855 0-2.0144-.039-3.2373-.116-3.669-.078-.4427-.238-.8965-.482-1.3613-.243-.4759-.365-.9131-.365-1.3115 0-.3985.188-.736.565-1.0127.376-.2878.902-.4317 1.577-.4317z"/><path d="m158.438 15.1879h.581c1.173.0111 1.981.3929 2.424 1.1455.144.2435.282.3653.415.3653.144 0 .426-.1328.847-.3985.42-.2656.863-.5091 1.328-.7304.465-.2325 1.062-.3487 1.793-.3487.73 0 1.273.166 1.627.4981.365.3209.548.7249.548 1.2119 0 .4759-.155.9407-.465 1.3945-.31.4427-.714.6641-1.212.6641l-2.042-.2158c-.343 0-.747.1438-1.212.4316-.454.2878-.819.7415-1.096 1.3613-.276.6198-.415 1.5938-.415 2.9219 0 1.3171.15 2.54.449 3.669.298 1.1067.448 1.97.448 2.5898 0 1.2396-1.135 1.8594-3.403 1.8594h-.316c-1.538 0-2.308-.5811-2.308-1.7432 0-.3431.111-.8522.333-1.5273.232-.6862.37-1.2452.415-1.6768.055-.4427.083-1.6712.083-3.6855 0-2.0144-.039-3.2373-.117-3.669-.077-.4427-.238-.8965-.481-1.3613-.244-.4759-.365-.9131-.365-1.3115 0-.3985.188-.736.564-1.0127.376-.2878.902-.4317 1.577-.4317z"/><path clip-rule="evenodd" d="m12.6718 8.96015c-2.0494-2.04938-2.0494-5.37208 0-7.42147 2.0494-2.049378 5.3721-2.049378 7.4215 0 2.0494 2.04939 2.0494 5.37209 0 7.42147-2.0494 2.04935-5.3721 2.04935-7.4215 0zm14.7477-7.04976c-2.0494 2.04938-2.0494 5.37209 0 7.42147 2.0494 2.04934 5.3721 2.04934 7.4215 0 2.0494-2.04938 2.0494-5.37209 0-7.42147-2.0494-2.049383-5.3721-2.049383-7.4215 0zm-6.051 13.60341 11.1132-.0244c2.1421-.0054 4.1543.8243 5.6656 2.3357 1.5112 1.5111 2.3406 3.5235 2.3357 5.6656-.0044 2.1421-.8432 4.1573-2.361 5.675-1.5177 1.5177-3.9773 1.9071-6.1194 1.912h-.0625v.0625c-.0045 2.1421-.3936 4.601-1.9116 6.119-1.5177 1.5178-3.5333 2.3565-5.6752 2.3613-4.4215.0099-8.011-3.5797-8.0013-8.0014l.0247-11.1137c.0061-2.7543 2.2374-4.9857 4.9918-4.9916zm-18.52749 18.3966c-2.049385-2.0494-2.049385-5.3721 0-7.4215 2.04938-2.0493 5.37208-2.0493 7.42149 0 2.0494 2.0494 2.0494 5.3721 0 7.4215-2.04941 2.0494-5.37211 2.0494-7.42149 0zm-.47397-21.7683c-2.049384 2.0494-2.049384 5.3721 0 7.4215 2.04938 2.0494 5.37209 2.0494 7.42147 0 2.04939-2.0494 2.04939-5.3721 0-7.4215-2.04938-2.0493-5.37209-2.0493-7.42147 0z" fill-rule="evenodd"/></g></svg>