<svg height="46" viewBox="0 0 180 46" width="180" xmlns="http://www.w3.org/2000/svg"><g fill="#fff" transform="translate(-9 -9)"><path d="m23.1829062 53.1982208c-1.3188486-.1663836-2.326193-.8701555-3.0958493-1.9800687-.5275394-.7611277-.85922-1.6147481-1.064921-2.5272746-.1756824-.7859302-.242117-1.5837449-.2170195-2.3908606.0462581-1.4829846.3779387-2.8915617.9911048-4.2277981.4246889-.9259611.9728969-1.7609796 1.6716898-2.4812865.6225161-.6402153 1.3267222-1.1517675 2.148542-1.4705834.5772423-.2237395 1.1707241-.3343174 1.7858587-.2960802 1.064921.06459 1.9689227.5089686 2.728737 1.2850812.6476137.6624342 1.0890342 1.4633493 1.3946331 2.3500398.2135747.6200632.3469359 1.2592451.4163231 1.9128951.0482265.4479958.0674187.8965082.0536397 1.3450206-.0314949 1.0587581-.2125905 2.0896132-.5403342 3.0904987-.3479201 1.0654754-.841012 2.0477589-1.5142153 2.9261819-.5664159.7389087-1.2283007 1.3636225-2.0225625 1.8250529-.5836396.3394846-1.2051716.5590904-1.8705012.6381485-.0201764.0118845-.0423212.0067173-.0629898.0082675-.0211606 0-.0423212 0-.0629897 0-.0305107.0041337-.0629898-.0113679-.0900557.0113678-.1451718 0-.287883 0-.4320706 0-.0280501-.0232524-.059545-.0077508-.0900557-.0113678-.0216527 0-.0418291 0-.0634819 0-.0201764-.0005168-.0428133.0051672-.0634818-.0072341zm30.5793148-15.7701144c-.0195891.4059455-.0881509.804447-.1884285 1.196497-.1940254.7617681-.5116487 1.456044-1.0065067 2.0505705-.553159.6635075-1.2369119 1.0927774-2.055923 1.2659742-.6650966.139947-1.3213316.0798988-1.9663727-.1315104-.7415875-.2436666-1.397356-.6580486-1.980365-1.1974895-.9057628-.8352155-1.5550016-1.8629821-2.0046182-3.0391322-.2350692-.6158659-.3978453-1.2535675-.4878619-1.9111198-.0438423-.3190989-.0648306-.640183-.0708939-.9627558-.0107274-.612392.0471071-1.2148588.1898277-1.8074002.1902942-.7905515.5107159-1.510137 1.0214318-2.126003.5862739-.7066825 1.317134-1.1463741 2.1930467-1.2977352.6427091-.1111635 1.2746909-.0362274 1.8931468.1761744.831604.2873379 1.5442742.7806262 2.1720583 1.4193204.6123927.6213248 1.0988554 1.3428954 1.4780445 2.1453573.3717265.7870776.6282505 1.6168341.7518484 2.4897658.0214547.1543387.0391782.3086773.0587673.4625198.0153914.0704697.0093281.1424283.025186.2124017.0074625.0292797.0032648.0570706.004664.0873428.0051305.03722-.0107273.0769212.0107274.1141412v.5657431c-.0331149.0516116-.0167907.1091785-.0205219.164264-.0027985.04119.0069961.0848614-.0172571.1230739zm-9.7641969 8.834325c-.0045962 1.1988034-.1690399 2.2800042-.5556357 3.3204151-.2916066.786665-.6919911 1.5060529-1.2496696 2.1253199-.6005768.6685328-1.3140172 1.1479482-2.1745375 1.3736178-.8605204.226729-1.7062306.1621006-2.5376414-.1499167-.732336-.2754652-1.3712149-.7098526-1.9385966-1.2581343-.9059722-.8740722-1.5545543-1.9293158-2.0167329-3.1122269-.2936494-.7522319-.4958845-1.5298913-.6113014-2.3313891-.0653689-.4545175-.1031603-.9127433-.1123528-1.3741475-.0097032-.5805958.0255347-1.1590727.1179704-1.7322522.1920212-1.1977439.5837239-2.3133779 1.2823541-3.2997552.4346011-.6118506.9621486-1.117753 1.6097093-1.4822146.7236542-.4068409 1.4983779-.5768877 2.3180427-.5111998.7410179.0588012 1.4243272.3098983 2.061674.7019065.8314108.51067 1.5045063 1.199333 2.0647382 2.0098364.6644137.9625389 1.1209746 2.0267881 1.4100278 3.1704984.1583153.6256238.2594328 1.2618425.3053953 1.9070667.018385.2420915.0342166.4857723.0265561.6425755zm-34.9980241-9.4694346c0-.0432934 0-.0870843 0-.1308753.05139798-1.0858166.35156218-2.1079374.83624512-3.0827838.38137298-.7638536.86811188-1.4600302 1.47049618-2.0770846.7730256-.7932135 1.6699203-1.4117607 2.7364284-1.7829886.6388769-.2224381 1.296771-.3319155 1.9767662-.295589 1.0038026.0547387 1.8801381.4070569 2.6171851 1.0698927.6085521.5478846 1.0099703 1.2216682 1.2628484 1.9800479.227693.6797551.3196954 1.3804104.2965663 2.0940039-.049856 1.56901-.5622939 2.9952019-1.449937 4.3004709-.2996502.4418906-.6435027.8499427-1.0289875 1.223161-.7930708.7648489-1.6997312 1.3530411-2.7734349 1.6864495-.610608.188102-1.2345795.2741911-1.8739704.2259215-.9765616-.0731508-1.8282261-.4309428-2.542658-1.0833285-.64453062-.5886898-1.05108864-1.3157192-1.29677098-2.1318234-.13569066-.4508478-.21484355-.9121457-.23077692-1.3824009 0-.0437909 0-.0880795 0-.1318705.0051398-.160235.00462582-.3204701 0-.4812028zm18.4511677-2.7267192-8.8155005-8.7769477c-1.6997451-1.6912539-2.6356672-3.940618-2.6356672-6.3331235 0-2.3921529.9362762-4.641517 2.6356672-6.3331235 1.6990368-1.691959 3.9579271-2.6230829 6.3605876-2.6230829 2.4026604 0 4.6615508.9314765 6.3609417 2.6230829l.0449724.0447758.0449725-.0447758c1.6990368-1.691959 3.9582813-2.6230829 6.3612958-2.6230829 2.4026605 0 4.6619049.9314765 6.3609418 2.6230829 3.5074947 3.4918029 3.5074947 9.1740915 0 12.666247l-8.8160997 8.7770573c-2.1849513 2.1752752-5.7172207 2.1752262-7.9021116-.0001096z" transform="matrix(-.70710678 .70710678 -.70710678 -.70710678 75.953675 31.75578)"/><path d="m77.1429687 30.496875c0 .6562533.1039053 1.055468.3117188 1.1976563.2078135.1421882.6343718.2132812 1.2796875.2132812h.39375l.13125-.0164062.525-.0164063.8039062-.065625c1.0718804 0 2.0343708-.4265582 2.8875-1.2796875.6234407-.6234406.9351563-1.4929632.9351563-2.6085937v-.3117188c0-1.1703184-.3937461-2.0507783-1.18125-2.6414062-.7875039-.590628-1.8538995-.8859375-3.1992188-.8859375h-.6726562c-1.1375057 0-1.7882804.1531234-1.9523438.459375-.1640633.3062515-.2460937 1.5585827-.2460937 3.7570312v.2789063l-.0164063.5578125zm0 10.3359375.0328125.9351563c0 .5687528.7273365.853125 2.1820313.853125h1.2632812c1.5859455 0 2.8191363-.3746057 3.6996094-1.1238282.8804732-.7492225 1.3207031-1.7308533 1.3207031-2.9449218v-.6726563c0-1.2687563-.4539017-2.2585902-1.3617187-2.9695312-.907817-.7109411-2.0617118-1.0664063-3.4617188-1.0664063h-1.5421875c-.8312541 0-1.3863267.0820304-1.6652343.2460938-.2789077.1640633-.4183594.5085911-.4183594 1.0335937-.0437502.393752-.065625.6671867-.065625.8203125v.39375l-.0164063.459375v3.28125l.0164063.1476563zm3.2648438-18.9c2.4390747 0 4.2847594.4839795 5.5371094 1.4519531s1.8785156 2.3023353 1.8785156 4.003125c0 1.7007898-.5796817 3.1144475-1.7390625 4.2410157-.6234406.6015655-.9351563.9269528-.9351563.9761718s.1312487.1503899.39375.3035157l.3117188.1640625c1.0171926.5250026 1.8265595 1.2277299 2.428125 2.1082031.6015655.8804731.9023437 1.9113222.9023437 3.0925781v.4101563c-.0109375 1.0828179-.2679662 2.0507769-.7710937 2.9039062-.9406297 1.5859454-2.4992079 2.6195288-4.6757813 3.1007813-1.104693.2406262-2.4335859.3609375-3.9867187.3609375h-1.5585938l-.39375-.0164063c-2.1875109 0-3.5601534-.071093-4.1179687-.2132812-.5359402-.1421883-.8039063-.4539039-.8039063-.9351563 0-.1531258.1148427-.524997.3445313-1.115625s.3445312-1.8046783.3445312-3.6421875v-10.9757812c0-1.8265717-.1230456-3.0816373-.3691406-3.7652344-.246095-.6835972-.3691406-1.0582028-.3691406-1.1238281v-.2460938c0-.3609393.259763-.6152336.7792969-.7628906.5195338-.147657 1.4738212-.2214844 2.8628906-.2214844l.39375-.0164062c.2625013-.0109376.51953-.0164063.7710937-.0164063l.7875-.0328125zm17.85 21h.5085937c1.0171926 0 1.9140588-.4374956 2.6906248-1.3125.426565-.4812524.639844-1.3781184.639844-2.690625l.016406-.2132812v-.4101563c0-.8203166-.339059-1.2304687-1.017187-1.2304687h-.525l-.8531253.065625-.4429687.0492187c-1.006255 0-1.832028.2816378-2.4773438.8449219-.6453157.563284-.9679687 1.2331992-.9679687 2.0097656v.5742188c0 .5906279.2105448 1.1238257.6316406 1.5996093.4210959.4757837 1.019918.7136719 1.7964844.7136719zm8.3015625.7875c0 .7328162-.738274 1.0992188-2.214844 1.0992188-.262501 0-.741012-.1339831-1.435547-.4019532-.694534-.2679701-1.13203-.4019531-1.3125-.4019531-.180469 0-.773823.18867-1.7800778.5660156-1.006255.3773457-1.8921836.5660157-2.6578125.5660157h-.3773437c-1.1921935 0-2.2203082-.3910118-3.084375-1.1730469-.8640668-.7820352-1.2960938-1.8511651-1.2960938-3.2074219 0-2.7562638 1.7445139-4.4734341 5.2335938-5.1515625 2.2640738-.4484397 3.434375-.6890623 3.510937-.721875.535941-.2734389.803907-.7683558.803907-1.4847656 0-.7164099-.226951-1.3179663-.68086-1.8046875-.453908-.4867212-1.071871-.7300781-1.8539059-.7300781-.7820351 0-1.7035103.2652317-2.7644531.7957031s-1.7882793.7957031-2.1820313.7957031c-.710941 0-1.0664062-.4867139-1.0664062-1.4601562 0-.6125031.5605413-1.1921848 1.6816406-1.7390625 1.1210994-.5468778 2.3980397-.8203125 3.8308594-.8203125h.8203125c1.07188 0 2.023433.2023417 2.854687.6070312.831255.4046895 1.465623.9515591 1.903125 1.640625.623441.9734424.935157 3.1992014.935157 6.6773438 0 1.9687598.041015 3.1937475.123047 3.675.082031.4812524.270701.9652319.566015 1.4519531s.442969.894139.442969 1.2222656zm11.582812-11.68125c-1.02813 0-1.826559.511323-2.395312 1.5339844-.568753 1.0226613-.853125 2.5839739-.853125 4.6839844 0 .9296921.038281 1.5886699.114844 1.9769531s.19414.8695284.352734 1.44375c.158595.5742216.237891 1.0718729.237891 1.4929687 0 .4210959-.25156.8066389-.754688 1.1566407-.503127.3500017-1.159371.525-1.96875.525l-.278906-.0164063h-.295313c-.525002 0-.959763-.1476548-1.304296-.4429687-.344533-.295314-.516797-.6289044-.516797-1.0007813v-.2625c0-.0765625.103905-.4374968.311718-1.0828125.207814-.6453157.328125-1.268747.360938-1.8703125s.049219-1.4109324.049219-2.428125v-1.8210937l-.016407-.2953125v-.590625l-.032812-.8859375c-.010938-.196876-.016406-.5824191-.016406-1.1566407s-.101171-1.1210911-.303516-1.640625c-.202345-.5195338-.303516-.8558586-.303516-1.0089843 0-.6562533.574214-.984375 1.722657-.984375s1.979685.3117156 2.49375.9351562c.153126.1859384.314452.2789063.483984.2789063s.45117-.1367174.844922-.4101563c1.093755-.7437537 2.012496-1.115625 2.75625-1.115625h.2625c.656253 0 1.156639.1476548 1.501172.4429688.344533.2953139.516797.68906.516797 1.18125 0 .9734423-.541401 1.4601562-1.624219 1.4601562-.426565-.0656253-.874998-.0984375-1.345313-.0984375zm11.123438 1.9359375c.273439 0 1.14843-.7765547 2.625-2.3296875.40469-.4265646.792967-.8749976 1.164844-1.3453125s.710936-.8121083 1.017187-1.0253906c.306252-.2132823.765622-.3199219 1.378125-.3199219 1.246881 0 1.870313.2734348 1.870313.8203125 0 .1093755-.713665.9871011-2.141016 2.6332031s-2.141016 2.8136685-2.141016 3.5027344c0 .3390642.894132 1.7499876 2.682422 4.2328125 1.788291 2.4828249 2.682422 3.7351561 2.682422 3.7570313 0 .4703148-.486714.7054687-1.460156.7054687s-1.755466-.25156-2.346094-.7546875c-.076563-.0656253-.746478-1.09374-2.009765-3.084375-1.263288-1.990625-2.15742-2.9859375-2.682422-2.9859375-.382815 0-.705468.2871065-.967969.8613281s-.39375 1.2878864-.39375 2.1410157l.065625.8695312c.032813.4375022.049219.7218743.049219.853125 0 1.301569-.995303 1.9523438-2.985938 1.9523438-.896879 0-1.345312-.5632757-1.345312-1.6898438l.049218-.39375c.196876-1.6187581.295313-3.1335867.295313-4.5445312v-2.6578125l.016406-.5578125c.010938-.3718769.016406-.7437482.016406-1.115625l.032813-1.115625v-1.115625l.032812-2.2148438c0-2.3953245-.043749-3.8636692-.13125-4.4050781-.0875-.541409-.183202-1.0062481-.287109-1.3945313s-.155859-.6261714-.155859-.7136718v-.39375c0-.2078136.158592-.4046866.475781-.590625.317189-.1859385.749216-.2789063 1.296094-.2789063h.442968c.80938 0 1.345312.3281217 1.607813.984375.196876.49219.295312 1.6132725.295312 3.3632813v3.4453125l.032813 2.0671875c0 1.8921969.306247 2.8382812.91875 2.8382812zm25.642969 7.0875c.678128-.6562533 1.017187-1.4820263 1.017187-2.4773437 0-.9953175-.284372-1.8429653-.853125-2.5429688s-.853125-1.0664061-.853125-1.0992187c0-.393752.560542-.590625 1.681641-.590625s2.017965.133983 2.690625.4019531c.672659.2679701 1.008984.6480444 1.008984 1.1402344v.39375c0 1.6515707-.109374 3.1308528-.328125 4.4378906s-.437499 2.1246077-.65625 2.4527344c-.350002.5359401-1.022651.9679671-2.017969 1.2960937-1.640633.5359402-3.062493.8039063-4.265625.8039063h-.574218c-1.575008 0-3.007806-.3035126-4.298438-.9105469-1.290631-.6070343-2.324215-1.3562456-3.100781-2.2476563s-1.441013-2.0453054-1.993359-3.4617187c-.552347-1.4164134-.828516-2.9503824-.828516-4.6019531v-.65625c0-1.5640704.240623-3.078899.721875-4.5445313.951567-2.9422022 2.789049-5.009369 5.5125-6.2015625 1.356257-.590628 2.789055-.8859375 4.298437-.8859375h.639844c2.023448 0 3.56562.2789035 4.626563.8367188 1.060943.5578152 1.591406 1.3316356 1.591406 2.3214843s-.355465 1.4847657-1.066406 1.4847657l-2.378907-1.0007813c-1.050005-.4375022-2.099994-.65625-3.15-.65625-2.10001 0-3.776165.75468-5.028515 2.2640625s-1.878516 3.6257676-1.878516 6.3492188c0 1.3453192.16953 2.5921817.508594 3.740625.98438 3.2922039 3.084359 4.9382812 6.3 4.9382812 1.115631 0 2.007028-.3281217 2.674219-.984375zm16.980468-9.0234375c-1.02813 0-1.826559.511323-2.395312 1.5339844-.568753 1.0226613-.853125 2.5839739-.853125 4.6839844 0 .9296921.038281 1.5886699.114844 1.9769531s.19414.8695284.352734 1.44375c.158595.5742216.237891 1.0718729.237891 1.4929687 0 .4210959-.25156.8066389-.754688 1.1566407-.503127.3500017-1.159371.525-1.96875.525l-.278906-.0164063h-.295313c-.525002 0-.959763-.1476548-1.304296-.4429687-.344533-.295314-.516797-.6289044-.516797-1.0007813v-.2625c0-.0765625.103905-.4374968.311718-1.0828125.207814-.6453157.328125-1.268747.360938-1.8703125s.049219-1.4109324.049219-2.428125v-1.8210937l-.016407-.2953125v-.590625l-.032812-.8859375c-.010938-.196876-.016406-.5824191-.016406-1.1566407s-.101171-1.1210911-.303516-1.640625c-.202345-.5195338-.303516-.8558586-.303516-1.0089843 0-.6562533.574214-.984375 1.722657-.984375s1.979685.3117156 2.49375.9351562c.153126.1859384.314452.2789063.483984.2789063s.45117-.1367174.844922-.4101563c1.093755-.7437537 2.012496-1.115625 2.75625-1.115625h.2625c.656253 0 1.156639.1476548 1.501172.4429688.344533.2953139.516797.68906.516797 1.18125 0 .9734423-.541401 1.4601562-1.624219 1.4601562-.426565-.0656253-.874998-.0984375-1.345313-.0984375zm13.682813 0c-1.02813 0-1.82656.511323-2.395313 1.5339844-.568752 1.0226613-.853125 2.5839739-.853125 4.6839844 0 .9296921.038281 1.5886699.114844 1.9769531s.19414.8695284.352735 1.44375c.158594.5742216.23789 1.0718729.23789 1.4929687 0 .4210959-.25156.8066389-.754687 1.1566407-.503128.3500017-1.159371.525-1.96875.525l-.278907-.0164063h-.295312c-.525003 0-.959764-.1476548-1.304297-.4429687-.344533-.295314-.516797-.6289044-.516797-1.0007813v-.2625c0-.0765625.103905-.4374968.311719-1.0828125s.328125-1.268747.360937-1.8703125c.032813-.6015655.049219-1.4109324.049219-2.428125v-1.8210937l-.016406-.2953125v-.590625l-.032813-.8859375c-.010937-.196876-.016406-.5824191-.016406-1.1566407s-.101171-1.1210911-.303515-1.640625c-.202345-.5195338-.303516-.8558586-.303516-1.0089843 0-.6562533.574213-.984375 1.722656-.984375s1.979685.3117156 2.49375.9351562c.153126.1859384.314453.2789063.483985.2789063s.45117-.1367174.844921-.4101563c1.093756-.7437537 2.012497-1.115625 2.75625-1.115625h.2625c.656254 0 1.156639.1476548 1.501172.4429688.344533.2953139.516797.68906.516797 1.18125 0 .9734423-.541401 1.4601562-1.624219 1.4601562-.426564-.0656253-.874997-.0984375-1.345312-.0984375z"/></g></svg>