<svg width="250" height="248" viewBox="0 0 250 248" fill="none" xmlns="http://www.w3.org/2000/svg">
<g clip-path="url(#clip0)">
<path d="M78.62 225.59C172.96 225.59 224.56 147.43 224.56 79.6501C224.56 77.4301 224.56 75.2202 224.41 73.0202C234.448 65.7593 243.114 56.7689 250 46.4702C240.639 50.6182 230.708 53.3384 220.54 54.5401C231.247 48.13 239.261 38.0479 243.09 26.1702C233.022 32.1447 222.006 36.3553 210.52 38.6202C202.787 30.397 192.559 24.9518 181.419 23.1273C170.279 21.3027 158.848 23.2005 148.895 28.527C138.943 33.8534 131.023 42.3115 126.362 52.5925C121.701 62.8735 120.558 74.4042 123.11 85.4001C102.718 84.3778 82.768 79.0785 64.5564 69.8461C46.3448 60.6136 30.2784 47.6546 17.4 31.8102C10.8409 43.1018 8.832 56.4688 11.7823 69.1895C14.7326 81.9103 22.4202 93.0284 33.28 100.28C25.1174 100.038 17.1328 97.8363 10 93.8602C10 94.0702 10 94.2901 10 94.5101C10.0032 106.352 14.1026 117.829 21.6028 126.993C29.103 136.157 39.5423 142.445 51.15 144.79C43.5987 146.85 35.6758 147.151 27.99 145.67C31.2676 155.862 37.6486 164.774 46.2407 171.161C54.8328 177.548 65.2061 181.089 75.91 181.29C57.7474 195.564 35.3106 203.313 12.21 203.29C8.12903 203.282 4.05204 203.035 0 202.55C23.4564 217.603 50.7491 225.587 78.62 225.55" fill="white"/>
</g>
<defs>
<clipPath id="clip0">
<rect width="250" height="248" fill="white"/>
</clipPath>
</defs>
</svg>
