<svg fill="none" height="45" viewBox="0 0 173 45" width="173" xmlns="http://www.w3.org/2000/svg" xmlns:xlink="http://www.w3.org/1999/xlink"><clipPath id="a"><path d="m0 0h172.83v44.3h-172.83z"/></clipPath><g clip-path="url(#a)" fill="#fff"><path d="m64.0772 15.5838v3.1377c0 .7968.0553 1.3059.166 1.5273.1107.2213.3984.332.8633.332h1.6269l.1328-.0166.5147-.0166.6475-.0498c.8522 0 1.566-.3209 2.1416-.9629.5865-.6419.8798-1.3613.8798-2.1582v-.5478c0-.8412-.2933-1.555-.8798-2.1416-.5866-.5866-1.3558-.8799-2.3077-.8799-.177-.0221-.3099-.0332-.3984-.0332l-.6475-.0332h-1.0293c-.7968 0-1.2838.0996-1.4609.2988-.166.1882-.249.7028-.249 1.544zm-.0166 13.6298c0 1.0072.1273 1.6049.3818 1.793.2656.1771.9684.2656 2.1084.2656h1.1953c1.4942 0 2.5843-.3431 3.2705-1.0293.6973-.6972 1.0459-1.6048 1.0459-2.7226v-.3155c-.0221-.1992-.0332-.3486-.0332-.4482 0-.8411-.3652-1.5882-1.0957-2.2412-.7194-.6641-1.6103-.9961-2.6728-.9961-.1992-.0221-.3487-.0332-.4483-.0332l-.7304-.0332h-1.0127c-1.0293 0-1.6215.1162-1.7764.3486-.1439.2325-.2158.9242-.2158 2.0752v1.9258l-.0166.5645zm2.7226 5.0967h-.415l-.4316-.0166h-.8301l-1.2119-.0166c-2.2468 0-3.5804-.0443-4.001-.1328-.6862-.1439-1.0293-.4648-1.0293-.9629 0-.2767.1217-.8411.3652-1.6933.2435-.8523.3653-1.9369.3653-3.254l.0332-2.0253v-8.9981c0-1.1289-.072-2.0309-.2159-2.706l-.5976-2.2247c0-.6419.1992-1.0403.5976-1.1953.4095-.166 1.2064-.249 2.3907-.249l3.6689-.083 1.2451-.0166h.4151c4.2168 0 6.8453 1.1898 7.8857 3.5693.2767.6309.415 1.4222.415 2.3741 0 .9407-.1826 1.7487-.5478 2.4238-.3542.664-.6309 1.0902-.8301 1.2783-.1992.1882-.498.4482-.8965.7803-.3984.332-.5976.5091-.5976.5312.011.0222.3929.2712 1.1455.7471 1.9147 1.1953 2.8721 2.8499 2.8721 4.9639-.0111 4.6041-3.2761 6.9062-9.795 6.9062z"/><path d="m85.6645 31.5047c.6198 0 1.1787-.2491 1.6768-.7471.498-.4981.7471-.9906.7471-1.4776.0221-.1328.0332-.2268.0332-.2822l.0332-.581c0-.0996 0-.1993 0-.2989l.0166-.3818v-.2988c0-.7084-.2989-1.0625-.8965-1.0625h-.5811l-.0996.0166h-.1992c-1.2728 0-2.2689.2269-2.9883.6806-.7194.4427-1.0791 1.0349-1.0791 1.7764v.3984c0 .6088.1937 1.14.5811 1.5938.3984.4427.8743.6641 1.4277.6641l.4814.0498h.3819c.1992-.0332.3541-.0498.4648-.0498zm7.7529 1.2783c-.011.9297-.7692 1.3945-2.2744 1.3945-.7526 0-1.4166-.1494-1.9922-.4482-.5755-.3099-1.0846-.4649-1.5273-.4649-.0332 0-.581.2048-1.6435.6143-1.0625.3984-2.042.5976-2.9385.5976-1.5052 0-2.7282-.4261-3.669-1.2783-.9297-.8522-1.3945-1.9645-1.3945-3.3369v-.3984c0-3.1211 2.4072-4.903 7.2217-5.3457.8743-.0775 1.4831-.1716 1.8262-.2823.6529-.2213.9794-.7028.9794-1.4443 0-.7526-.3043-1.3392-.913-1.7598-.3653-.2545-.8523-.3818-1.461-.3818s-1.4941.2546-2.6562.7637c-1.1511.498-1.9645.747-2.4405.747-.4759 0-.8466-.166-1.1123-.498-.2656-.332-.3984-.736-.3984-1.2119 0-.808.6475-1.4831 1.9424-2.0254 1.306-.5423 2.7282-.8135 4.2666-.8135 2.944 0 4.9472.7637 6.0097 2.291.476.6752.7803 1.4388.9131 2.291.1439.8412.2159 2.2634.2159 4.2666 0 1.9922.0387 3.2041.1162 3.6358.0885.4316.2656.9075.5312 1.4277.2656.5091.3984.9463.3984 1.3115z"/><path d="m97.8056 17.7254h.581c1.1732.011 1.9814.3929 2.4234 1.1455.144.2435.283.3652.415.3652.144 0 .427-.1328.847-.3984.421-.2657.863-.5092 1.328-.7305.465-.2324 1.063-.3486 1.793-.3486.731 0 1.273.166 1.627.498.365.321.548.7249.548 1.2119 0 .4759-.155.9408-.465 1.3946-.31.4427-.714.664-1.212.664l-2.042-.2158c-.343 0-.747.1439-1.212.4316-.453.2878-.819.7416-1.095 1.3614-.277.6198-.415 1.5937-.415 2.9218 0 1.3171.149 2.5401.448 3.669.299 1.1068.448 1.97.448 2.5898 0 1.2396-1.134 1.8594-3.4032 1.8594h-.3154c-1.5384 0-2.3076-.5811-2.3076-1.7432 0-.3431.1107-.8522.332-1.5273.2324-.6862.3708-1.2451.4151-1.6768.0553-.4427.083-1.6712.083-3.6855s-.0388-3.2373-.1162-3.669c-.0775-.4427-.238-.8964-.4815-1.3613-.2435-.4759-.3652-.9131-.3652-1.3115s.1881-.736.5644-1.0127c.3763-.2878.902-.4316 1.5772-.4316z"/><path d="m111.192 33.8953c-.808 0-1.373-.1439-1.694-.4317-.321-.2877-.481-.7858-.481-1.4941 0-.1771.055-.5423.166-1.0957.21-1.0514.315-2.2744.315-3.669v-4.1503l.017-1.6934v-4.7813c0-1.5052-.033-2.4182-.1-2.7392-.055-.321-.166-.7858-.332-1.3945-.166-.6198-.249-.9906-.249-1.1123v-.4649c0-.2545.194-.5036.581-.7471.399-.25452 1.196-.38179 2.391-.38179.863 0 1.411.31539 1.644.94629.232.6198.348 2.4017.348 5.3457s.033 4.7204.1 5.3291c.11.974.393 1.4609.846 1.4609.388 0 1.152-.664 2.291-1.9922.277-.3209.615-.7747 1.013-1.3613.399-.5976.792-1.0348 1.179-1.3115s1.018-.415 1.892-.415c1.517 0 2.275.2822 2.275.8466 0 .5534-.769 1.5827-2.308 3.0879-1.538 1.5052-2.307 2.5954-2.307 3.2705 0 .2546.963 1.6657 2.888 4.2334 1.926 2.5677 2.889 3.9844 2.889 4.25 0 .4317-.415.6475-1.245.6475h-.515c-1.594 0-2.706-.3154-3.337-.9463-.254-.2546-.625-.8688-1.112-1.8428-.487-.9739-1.057-1.8981-1.71-2.7724-.653-.8854-1.212-1.3282-1.677-1.3282-.144 0-.343.1882-.597.5645-.244.3652-.366 1.0238-.366 1.9756l.216 2.3076c0 1.2396-1.007 1.8594-3.021 1.8594z"/><path d="m130.687 22.573c0 1.2728.166 2.4349.498 3.4863.343 1.0404.736 1.8705 1.179 2.4903.454.6087 1.14 1.1455 2.059 1.6103.918.4649 1.876.6973 2.872.6973 1.007 0 1.793-.2767 2.357-.8301.576-.5534.863-1.2285.863-2.0254s-.376-1.5661-1.128-2.3076c-.742-.7526-1.113-1.3447-1.113-1.7764 0-.1549.078-.3099.233-.4648.398-.3984 1.3-.5977 2.706-.5977 1.416 0 2.418.1439 3.005.4317.586.2767.879.7581.879 1.4443 0 4.3496-.376 6.9671-1.128 7.8526-.476.5644-1.428 1.0348-2.856 1.4111-1.417.3763-2.933.5644-4.549.5644-3.32 0-5.893-1.0569-7.719-3.1709-.808-.9407-1.467-2.1969-1.976-3.7685-.509-1.5827-.764-3.2982-.764-5.1465 0-5.6777 2.192-9.3854 6.574-11.123 1.273-.5092 2.734-.7637 4.383-.7637h.648c2.136 0 3.647.2269 4.532.6806.885.4428 1.483.9131 1.793 1.4112.31.487.465.8633.465 1.1289 0 .8079-.155 1.3613-.465 1.6601-.299.2878-.565.4317-.797.4317-.221 0-1.057-.2822-2.507-.8467-1.439-.5644-2.667-.8467-3.685-.8467-2.114 0-3.741.7858-4.881 2.3574-.985 1.3503-1.478 3.3536-1.478 6.0098z"/><path d="m150.15 17.7254h.581c1.173.011 1.981.3929 2.424 1.1455.143.2435.282.3652.415.3652.143 0 .426-.1328.846-.3984.421-.2657.864-.5092 1.328-.7305.465-.2324 1.063-.3486 1.793-.3486.731 0 1.273.166 1.627.498.366.321.548.7249.548 1.2119 0 .4759-.155.9408-.465 1.3946-.31.4427-.714.664-1.212.664l-2.042-.2158c-.343 0-.747.1439-1.212.4316-.453.2878-.819.7416-1.095 1.3614-.277.6198-.415 1.5937-.415 2.9218 0 1.3171.149 2.5401.448 3.669.299 1.1068.448 1.97.448 2.5898 0 1.2396-1.134 1.8594-3.403 1.8594h-.316c-1.538 0-2.307-.5811-2.307-1.7432 0-.3431.111-.8522.332-1.5273.232-.6862.371-1.2451.415-1.6768.055-.4427.083-1.6712.083-3.6855s-.039-3.2373-.116-3.669c-.078-.4427-.238-.8964-.482-1.3613-.243-.4759-.365-.9131-.365-1.3115s.188-.736.564-1.0127c.377-.2878.903-.4316 1.578-.4316z"/><path d="m163.27 17.7254h.581c1.173.011 1.981.3929 2.424 1.1455.144.2435.282.3652.415.3652.144 0 .426-.1328.847-.3984.42-.2657.863-.5092 1.328-.7305.465-.2324 1.062-.3486 1.793-.3486.73 0 1.273.166 1.627.498.365.321.548.7249.548 1.2119 0 .4759-.155.9408-.465 1.3946-.31.4427-.714.664-1.212.664l-2.042-.2158c-.343 0-.747.1439-1.212.4316-.454.2878-.819.7416-1.096 1.3614-.276.6198-.415 1.5937-.415 2.9218 0 1.3171.15 2.5401.449 3.669.298 1.1068.448 1.97.448 2.5898 0 1.2396-1.135 1.8594-3.404 1.8594h-.315c-1.538 0-2.308-.5811-2.308-1.7432 0-.3431.111-.8522.332-1.5273.233-.6862.371-1.2451.415-1.6768.056-.4427.083-1.6712.083-3.6855s-.038-3.2373-.116-3.669c-.077-.4427-.238-.8964-.481-1.3613-.244-.4759-.365-.9131-.365-1.3115s.188-.736.564-1.0127c.376-.2878.902-.4316 1.577-.4316z"/><path clip-rule="evenodd" d="m1.20824 32.8887c.20632.3482.43962.6784.71281.9793.0072.0323.02923.0537.05116.075.00816.008.01631.0159.02367.0243.01045.012.02222.0229.034.0338.02914.0271.05832.0542.06764.0968l.40004.4001c.02659.0072.04307.0259.05936.0443.00912.0104.01819.0207.02894.0288.00727.0067.01395.0135.02053.0203.01368.0141.02699.0277.04453.0381.03065.0194.0577.043.08479.0667.02655.0232.05315.0465.08321.0657.04056.0315.08101.0631.12149.0947.08191.0639.16391.128.24711.1908.70465.5299 1.47277.9352 2.29217 1.2289.83555.2993 1.68976.4656 2.56213.4719.89553.0077 1.74825-.1474 2.53948-.5323.5875-.2871 1.0874-.681 1.4633-1.2141.5123-.7264.7182-1.5541.6331-2.4683-.0744-.7966-.3567-1.532-.7811-2.2256-.3181-.5199-.7032-.9868-1.1438-1.4123-.2324-.2238-.4743-.436-.7309-.6306-.52863-.4013-1.09466-.7371-1.69636-1.0064-1.14959-.5137-2.33542-.7814-3.56647-.7315-.79369.0308-1.55041.2015-2.24709.5536-.6056.3066-1.11209.7282-1.48342 1.2974-.45666.7016-.63661 1.4886-.55858 2.349.07047.7703.33681 1.4858.73826 2.1616zm-.58466-14.9126c.46232 1.009 1.11056 1.8898 1.95499 2.7408.10546.1163.28896.2774.47315.4356.48874.4237 1.01012.8021 1.56445 1.1325 1.01311.6044 2.08849 1.0341 3.23892 1.2449.96926.1769 1.93218.1879 2.88121-.0389.7278-.1734 1.3886-.4791 1.9541-.9615.6261-.5331 1.0536-1.2012 1.2777-2.0005.2001-.7156.2154-1.4464.0901-2.1864-.2035-1.1914-.7154-2.2573-1.4265-3.24-.3399-.4707-.7241-.9046-1.1415-1.3083-.3327-.3198-.6835-.6171-1.0511-.8922-.64843-.4852-1.34127-.892-2.08082-1.2163-1.16326-.5096-2.36804-.7972-3.62672-.7746-.7889.0135-1.54781.1581-2.26043.4811-.80853.3673-1.45224.9196-1.90039 1.6884-.448911.768-.614391 1.6115-.56633927 2.5089.04354917.8322.26912027 1.624.61917927 2.3865zm33.64442-16.05131c-.3009-.27319-.6311-.50649-.9793-.71281-.6758-.401447-1.3913-.667788-2.1616-.738259-.8604-.07803-1.6474.101922-2.349.558579-.5692.37133-.9908.87782-1.2974 1.48342-.3521.69668-.5228 1.4534-.5536 2.24709-.0499 1.23105.2178 2.41688.7315 3.56647.2693.6017.6051 1.16773 1.0064 1.69632.1946.2566.4068.4985.6306.7309.4255.4406.8924.8257 1.4123 1.1438.6936.4244 1.429.7067 2.2256.7811.9142.0851 1.7419-.1208 2.4683-.6331.5331-.3759.927-.8758 1.2141-1.4633.3849-.79119.54-1.64391.5323-2.53944-.0063-.87237-.1726-1.72658-.4719-2.56213-.2937-.8194-.699-1.58752-1.2289-2.29217-.0628-.08317-.1268-.16515-.1908-.24703v-.00004c-.0316-.04049-.0632-.08096-.0947-.12153-.0192-.03006-.0425-.05665-.0657-.08321-.0237-.02709-.0473-.05414-.0667-.08479-.0104-.01754-.024-.03084-.0381-.04453-.0068-.00658-.0136-.01325-.0203-.02053-.0081-.01075-.0184-.01982-.0288-.02894-.0185-.01629-.0372-.03277-.0443-.05936l-.4001-.40004c-.0426-.00931-.0697-.0385-.0968-.06764-.0109-.01178-.0218-.02355-.0338-.034-.0084-.00736-.0164-.01551-.0243-.02367-.0213-.02193-.0428-.04396-.075-.05116zm-13.1511.65752c-.851-.84443-1.7318-1.49267-2.7408-1.954987-.7625-.350061-1.5543-.5756323-2.3865-.61917962-.8974-.04805298-1.7409.11742562-2.5089.56633762-.7688.448149-1.3211 1.091859-1.6884 1.900389-.323.71262-.4676 1.47153-.4811 2.26043-.0226 1.25868.265 2.46346.7746 3.62672.3243.73955.7311 1.43239 1.2163 2.08078.2751.3676.5724.7184.8922 1.0511.4037.4174.8376.8016 1.3083 1.1415.9827.7111 2.0486 1.223 3.24 1.4265.74.1253 1.4708.11 2.1864-.0901.7993-.2241 1.4674-.6516 2.0005-1.2777.4824-.5655.7881-1.2263.9615-1.9541.2268-.94899.2158-1.91191.0389-2.88117-.2108-1.15043-.6405-2.22581-1.2449-3.23892-.3304-.55433-.7088-1.07571-1.1325-1.56445-.1582-.18419-.3193-.36769-.4356-.47315zm1.5197 14.46879 12.4397-.0273c2.3978-.006 4.6502.9227 6.3419 2.6145 1.6915 1.6915 2.62 3.9441 2.6145 6.3419-.005 2.3978-.9439 4.6535-2.6428 6.3524s-4.4521 2.1347-6.8499 2.1402h-.07v.07c-.005 2.3978-.4405 5.1502-2.1397 6.8494-1.6989 1.6989-3.9551 2.6378-6.3527 2.6431-4.9492.0111-8.9672-4.0069-8.9563-8.9564l.0276-12.4403c.0068-3.0831 2.5045-5.5808 5.5877-5.5875z" fill-rule="evenodd"/></g></svg>