<svg fill="none" height="46" viewBox="0 0 180 46" width="180" xmlns="http://www.w3.org/2000/svg"><path clip-rule="evenodd" d="m16.5333.742778c-1.3291-.240598-2.539-.025939-3.5892.788982-.0175.00436-.0286.01666-.0392.02839-.0036.00397-.0072.00787-.0109.01138l-.0448.04488c-.008.0063-.0146.01416-.0212.02197-.0132.01579-.0263.03141-.0506.03367l-.3055.30553c-.002.02324-.0175.03637-.0331.04965-.0081.00685-.0162.01373-.0225.02206l-.0446.04454c-.0038.00444-.008.00857-.0124.01274-.0109.0106-.022.02138-.0263.03765-.4145.52636-.6987 1.12114-.8714 1.77388-.2353.88791-.2616 1.79767-.1396 2.72068.1451 1.09716.491 2.14041.9984 3.13983.476.93949 1.0768 1.79649 1.8032 2.56739.3074.3269.6382.6305.989.9131.5113.4132 1.0576.7709 1.647 1.0583.8431.4109 1.7216.6651 2.6479.6756 1.0861.0115 2.0395-.3135 2.8382-1.0209.462-.4079.8035-.9057 1.0535-1.4721.3556-.8066.4919-1.6662.4793-2.55912-.0152-1.00346-.218-1.98155-.5724-2.9366-.5113-1.37844-1.2728-2.60899-2.2887-3.69033-.553-.58846-1.1641-1.10562-1.8441-1.53713-.7907-.4998-1.6288-.86887-2.54-1.034042zm-14.77374 32.583722c.20631.3481.43961.6783.7128.9792.00721.0323.02931.0538.05128.0751.00812.0079.01622.0158.02355.0242.01048.012.02229.023.0341.0339.02911.0271.05824.0541.06754.0967l.40004.4001c.02659.0071.04306.0258.05934.0443.00913.0104.0182.0207.02896.0288.00728.0066.01396.0135.02055.0203.01368.0141.02698.0278.04451.0382.03069.0193.05778.043.08491.0667.02652.0232.05308.0464.08309.0656.04176.0324.08341.0649.1251.0974.08071.0631.16153.1262.2435.1881.70465.5299 1.47277.9352 2.29217 1.2289.83555.2993 1.68976.4656 2.56213.4719.89553.0077 1.74827-.1474 2.53947-.5323.5875-.2871 1.0874-.681 1.4633-1.214.5123-.7264.7182-1.5541.633-2.4684-.0743-.7966-.3566-1.532-.781-2.2256-.3181-.5199-.7032-.9868-1.1438-1.4122-.2324-.2238-.4743-.436-.7309-.6307-.5286-.4013-1.09465-.7371-1.69635-1.0064-1.14959-.5137-2.33541-.7814-3.56647-.7315-.79369.0308-1.55041.2015-2.24709.5536-.6056.3066-1.11208.7282-1.48342 1.2974-.45666.7016-.63661 1.4887-.55858 2.349.07047.7703.33681 1.4858.73827 2.1617zm-.58467-14.9127c.46232 1.0091 1.11056 1.8899 1.955 2.7408.10545.1163.28896.2774.47314.4356.48874.4237 1.01012.8021 1.56445 1.1326 1.01312.6043 2.08849 1.034 3.23892 1.2448.96926.177 1.9322.188 2.8812-.0388.7278-.1735 1.3886-.4791 1.9541-.9615.626-.5332 1.0536-1.2012 1.2776-2.0006.2002-.7156.2155-1.4464.0902-2.1863-.2035-1.1915-.7154-2.2574-1.4265-3.2401-.34-.4706-.7241-.9046-1.1415-1.3083-.3328-.3197-.6835-.617-1.0511-.8922-.6484-.4851-1.34126-.892-2.08081-1.2163-1.16325-.5096-2.36804-.7972-3.62672-.7746-.78889.0135-1.54781.1581-2.26043.4811-.80853.3673-1.45223.9196-1.90039 1.6884-.448908.7681-.61439 1.6116-.566338 2.5089.04355.8323.269121 1.6241.619178 2.3865zm33.49081-15.21809-.0926-.09254c-.1169-.11038-.2306-.22333-.3402-.34026l-.0933-.09325c-.3438-.32125-.7259-.59147-1.1407-.81432-.7508-.40335-1.5523-.62996-2.4244-.59047-.9664.04387-1.8217.39309-2.5639 1.0319-.4863.41799-.8666.92007-1.1654 1.48485-.5234.99498-.7486 2.052-.7686 3.15361-.0086.53649.0367 1.06816.1373 1.59251.2953 1.55066.9415 2.92146 2.0157 4.06616.4882.5209 1.0487.9513 1.6903 1.271.7151.3574 1.4754.55 2.2931.5071.9899-.0525 1.8587-.423 2.6072-1.0941.5065-.4551.8943-.9977 1.1888-1.6068.4916-1.0166.6884-2.0882.6741-3.1957-.0103-.86227-.1584-1.69872-.4289-2.50852-.3466-1.03204-.8571-1.96704-1.5885-2.77117zm1.2283 14.85519-12.4397.0273c-3.0832.0068-5.5809 2.5044-5.5878 5.5876l-.0276 12.4402c-.0108 4.9495 4.0072 8.9675 8.9564 8.9564 2.3976-.0053 4.6538-.9441 6.3527-2.6431 1.6992-1.6992 2.137-4.4515 2.142-6.8493v-.07h.06c2.3978-.0055 5.1586-.4413 6.8576-2.1403 1.6989-1.6989 2.6378-3.9546 2.6428-6.3524.0055-2.3978-.923-4.6504-2.6145-6.3419-1.6918-1.6917-3.9441-2.6205-6.3419-2.6145zm32.5607 4.6436c-.2078-.1422-.3118-.5414-.3118-1.1976v-1.3617l.0165-.5579v-.2789c0-2.1984.082-3.4507.246-3.757.1641-.3063.8149-.4594 1.9524-.4594h.6726c1.3454 0 2.4118.2953 3.1993.886.7875.5906 1.1812 1.4711 1.1812 2.6414v.3117c0 1.1156-.3117 1.9851-.9351 2.6086-.8532.8531-1.8157 1.2797-2.8875 1.2797l-.8039.0656-.525.0164-.1313.0164h-.3938c-.6453 0-1.0718-.0711-1.2796-.2133zm-.2789 10.0735-.0329-.9352-.0164-.607-.0164-.1477v-3.2812l.0164-.4594v-.3938c0-.1531.0219-.4265.0657-.8203 0-.525.1394-.8695.4183-1.0336.2789-.164.834-.2461 1.6653-.2461h1.5422c1.4 0 2.5538.3555 3.4617 1.0665.9078.7109 1.3617 1.7007 1.3617 2.9695v.6726c0 1.2141-.4402 2.1957-1.3207 2.945-.8805.7492-2.1137 1.1238-3.6996 1.1238h-1.2633c-1.4547 0-2.182-.2844-2.182-.8531zm8.7691-18.3832c-1.2523-.968-3.098-1.452-5.5371-1.452l-1.9852.0328-.7875.0328c-.2515 0-.5086.0055-.7711.0164l-.3937.0164c-1.3891 0-2.3434.0739-2.8629.2215-.5195.1477-.7793.402-.7793.7629v.2461c0 .0656.1231.4402.3691 1.1238.2461.6836.3692 1.9387.3692 3.7653v10.9758c0 1.8375-.1149 3.0515-.3445 3.6421-.2297.5907-.3446.9625-.3446 1.1157 0 .4812.268.7929.8039.9351.5578.1422 1.9305.2133 4.118.2133l.3938.0164h1.5585c1.5532 0 2.8821-.1203 3.9868-.3609 2.1765-.4813 3.7351-1.5149 4.6757-3.1008.5032-.8531.7602-1.8211.7711-2.9039v-.4102c0-1.1812-.3007-2.2121-.9023-3.0925-.6016-.8805-1.4109-1.5832-2.4281-2.1082l-.3118-.1641c-.2625-.1531-.3937-.2543-.3937-.3035s.3117-.3746.9352-.9762c1.1593-1.1266 1.739-2.5402 1.739-4.241s-.6261-3.0352-1.8785-4.0031zm12.8215 19.548h-.5086c-.7766 0-1.3754-.2379-1.7965-.7137-.4211-.4757-.6316-1.0089-.6316-1.5996v-.5742c0-.7766.3226-1.4465.9679-2.0098.6453-.5632 1.4711-.8449 2.4774-.8449l.4429-.0492.8532-.0656h.525c.6781 0 1.0172.4101 1.0172 1.2304v.4102l-.0164.2133c0 1.3125-.2133 2.2094-.6399 2.6906-.7766.875-1.6734 1.3125-2.6906 1.3125zm5.5781 1.8867c1.4766 0 2.2148-.3664 2.2148-1.0992 0-.3281-.1476-.7355-.4429-1.2223-.2953-.4867-.484-.9707-.566-1.4519-.0821-.4813-.1231-1.7063-.1231-3.675 0-3.4782-.3117-5.7039-.9351-6.6774-.4375-.689-1.0719-1.2359-1.9032-1.6406-.8312-.4047-1.7828-.607-2.8547-.607h-.8203c-1.4328 0-2.7097.2734-3.8308.8203s-1.6817 1.1266-1.6817 1.7391c0 .9734.3555 1.4601 1.0664 1.4601.3938 0 1.1211-.2652 2.1821-.7957 1.0609-.5305 1.9824-.7957 2.7644-.7957.7821 0 1.4.2434 1.8539.7301s.6809 1.0883.6809 1.8047-.268 1.2113-.8039 1.4847c-.0766.0329-1.2469.2735-3.5109.7219-3.4891.6781-5.2336 2.3953-5.2336 5.1516 0 1.3562.432 2.4254 1.2961 3.2074.864.782 1.8921 1.1731 3.0843 1.1731h.3774c.7656 0 1.6515-.1887 2.6578-.5661 1.0062-.3773 1.5996-.566 1.7801-.566.1804 0 .6179.134 1.3125.402.6945.2679 1.173.4019 1.4355.4019zm11.4025-11.2465c.569-1.0226 1.367-1.5339 2.395-1.5339.47 0 .919.0328 1.345.0984 1.083 0 1.625-.4867 1.625-1.4602 0-.4922-.173-.8859-.517-1.1812-.345-.2953-.845-.443-1.501-.443h-.263c-.744 0-1.662.3719-2.756 1.1156-.394.2735-.675.4102-.845.4102-.169 0-.331-.093-.484-.2789-.514-.6234-1.345-.9352-2.494-.9352-1.148 0-1.722.3282-1.722.9844 0 .1531.101.4895.303 1.009.203.5195.304 1.0664.304 1.6406s.005.9598.016 1.1567l.033.8859v.5906l.016.2953v1.8211c0 1.0172-.016 1.8266-.049 2.4282-.033.6015-.153 1.225-.361 1.8703s-.312 1.0062-.312 1.0828v.2625c0 .3719.173.7054.517 1.0008.345.2953.78.4429 1.305.4429h.295l.279.0164c.809 0 1.465-.175 1.969-.525.503-.35.754-.7355.754-1.1566s-.079-.9187-.238-1.493c-.158-.5742-.276-1.0554-.352-1.4437-.077-.3883-.115-1.0473-.115-1.977 0-2.1.284-3.6613.853-4.684zm16.144-1.9277c-1.477 1.5531-2.352 2.3297-2.625 2.3297-.613 0-.919-.9461-.919-2.8383l-.033-2.0672v-3.4453c0-1.75-.098-2.8711-.295-3.3633-.263-.6562-.799-.9843-1.608-.9843h-.443c-.547 0-.979.0929-1.296.2789-.317.1859-.476.3828-.476.5906v.3937c0 .0875.052.3254.156.7137s.2.8531.287 1.3945c.088.5415.131 2.0098.131 4.4051l-.033 2.2149v1.1156l-.032 1.1156c0 .3719-.006.7438-.017 1.1156l-.016.5579v2.6578c0 1.4109-.099 2.9257-.295 4.5445l-.05.3937c0 1.1266.449 1.6899 1.346 1.6899 1.99 0 2.986-.6508 2.986-1.9524 0-.1312-.017-.4156-.05-.8531l-.065-.8695c0-.8531.131-1.5668.393-2.141.263-.5742.586-.8614.968-.8614.525 0 1.42.9953 2.683 2.986 1.263 1.9906 1.933 3.0187 2.01 3.0844.59.5031 1.372.7546 2.346.7546.973 0 1.46-.2351 1.46-.7054 0-.0219-.894-1.2742-2.683-3.7571-1.788-2.4828-2.682-3.8937-2.682-4.2328 0-.689.714-1.8566 2.141-3.5027s2.141-2.5238 2.141-2.6332c0-.5469-.623-.8203-1.87-.8203-.613 0-1.072.1066-1.378.3199-.307.2133-.646.5551-1.018 1.0254-.371.4703-.76.9187-1.164 1.3453zm24.035 6.9399c0 .9953-.339 1.821-1.017 2.4773-.668.6562-1.559.9844-2.675.9844-3.215 0-5.315-1.6461-6.3-4.9383-.339-1.1485-.508-2.3953-.508-3.7406 0-2.7235.626-4.8399 1.878-6.3493 1.253-1.5093 2.929-2.264 5.029-2.264 1.05 0 2.1.2187 3.15.6562l2.379 1.0008c.711 0 1.066-.4949 1.066-1.4848 0-.9898-.53-1.7636-1.591-2.3214-1.061-.5579-2.603-.8368-4.627-.8368h-.64c-1.509 0-2.942.2954-4.298.886-2.724 1.1922-4.561 3.2593-5.513 6.2015-.481 1.4657-.722 2.9805-.722 4.5446v.6562c0 1.6516.277 3.1856.829 4.602s1.217 2.5703 1.993 3.4617c.777.8914 1.81 1.6406 3.101 2.2477 1.291.607 2.724.9105 4.299.9105h.574c1.203 0 2.625-.268 4.265-.8039.996-.3281 1.668-.7602 2.018-1.2961.219-.3281.438-1.1457.657-2.4527.218-1.3071.328-2.7864.328-4.4379v-.3938c0-.4922-.337-.8722-1.009-1.1402-.673-.268-1.57-.402-2.691-.402s-1.681.1969-1.681.5907c0 .0328.284.3992.853 1.0992.568.7.853 1.5476.853 2.543zm13.568-5.0122c.568-1.0226 1.367-1.5339 2.395-1.5339.47 0 .919.0328 1.345.0984 1.083 0 1.625-.4867 1.625-1.4602 0-.4922-.173-.8859-.517-1.1812-.345-.2953-.845-.443-1.501-.443h-.263c-.744 0-1.662.3719-2.756 1.1156-.394.2735-.676.4102-.845.4102-.17 0-.331-.093-.484-.2789-.514-.6234-1.345-.9352-2.494-.9352-1.148 0-1.722.3282-1.722.9844 0 .1531.101.4895.303 1.009s.304 1.0664.304 1.6406.005.9598.016 1.1567l.033.8859v.5906l.016.2953v1.8211c0 1.0172-.016 1.8266-.049 2.4282-.033.6015-.153 1.225-.361 1.8703s-.312 1.0062-.312 1.0828v.2625c0 .3719.173.7054.517 1.0008.345.2953.779.4429 1.304.4429h.296l.279.0164c.809 0 1.465-.175 1.968-.525.504-.35.755-.7355.755-1.1566s-.079-.9187-.238-1.493c-.158-.5742-.276-1.0554-.353-1.4437-.076-.3883-.114-1.0473-.114-1.977 0-2.1.284-3.6613.853-4.684zm13.683 0c.568-1.0226 1.367-1.5339 2.395-1.5339.47 0 .919.0328 1.345.0984 1.083 0 1.624-.4867 1.624-1.4602 0-.4922-.172-.8859-.516-1.1812-.345-.2953-.845-.443-1.502-.443h-.262c-.744 0-1.663.3719-2.756 1.1156-.394.2735-.676.4102-.845.4102-.17 0-.331-.093-.484-.2789-.514-.6234-1.346-.9352-2.494-.9352s-1.723.3282-1.723.9844c0 .1531.102.4895.304 1.009s.303 1.0664.303 1.6406.006.9598.017 1.1567l.033.8859v.5906l.016.2953v1.8211c0 1.0172-.016 1.8266-.049 2.4282-.033.6015-.153 1.225-.361 1.8703s-.312 1.0062-.312 1.0828v.2625c0 .3719.172.7054.517 1.0008.344.2953.779.4429 1.304.4429h.296l.278.0164c.81 0 1.466-.175 1.969-.525s.755-.7355.755-1.1566-.079-.9187-.238-1.493c-.159-.5742-.276-1.0554-.353-1.4437-.076-.3883-.115-1.0473-.115-1.977 0-2.1.285-3.6613.854-4.684z" fill="#fff" fill-rule="evenodd"/></svg>