<svg fill="none" height="30" viewBox="0 0 126 30" width="126" xmlns="http://www.w3.org/2000/svg"><g fill="#406a5d"><path d="m43.1816 9.87606v2.37524c0 .6032.0417.9886.1251 1.1562s.3003.2514.6505.2514h1.226l.1001-.0126.3878-.0126.4879-.0377c.6422 0 1.1801-.2429 1.6138-.7289.442-.4859.663-1.0305.663-1.6338v-.4147c0-.6367-.221-1.17713-.663-1.62118s-1.0217-.66607-1.7389-.66607c-.1334-.01676-.2335-.02514-.3002-.02514l-.4879-.02513h-.7757c-.6004 0-.9674.0754-1.1008.22621-.1251.14243-.1877.53202-.1877 1.16877zm-.0125 10.31784c0 .7624.0959 1.2149.2877 1.3573.2002.1341.7298.2011 1.5888.2011h.9007c1.1259 0 1.9474-.2598 2.4645-.7792.5254-.5278.7881-1.2149.7881-2.0611v-.2387c-.0167-.1509-.025-.264-.025-.3394 0-.6367-.2752-1.2022-.8257-1.6966-.5421-.5027-1.2134-.754-2.0141-.754-.1501-.0168-.2627-.0251-.3377-.0251l-.5505-.0252h-.7631c-.7756 0-1.2218.088-1.3386.2639-.1084.176-.1626.6996-.1626 1.571v1.4578l-.0125.4273zm2.0516 3.8582h-.3127l-.3253-.0126h-.6255l-.9132-.0125c-1.693 0-2.698-.0335-3.0149-.1006-.5171-.1089-.7756-.3518-.7756-.7289 0-.2094.0917-.6367.2752-1.2818.1835-.6452.2752-1.4662.2752-2.4633l.025-1.5332v-6.8115c0-.8546-.0542-1.53744-.1626-2.04852l-.4504-1.68403c0-.48594.1502-.78756.4504-.90486.3086-.12567.9091-.18851 1.8014-.18851l2.7648-.06284.9382-.01256h.3128c3.1775 0 5.1582.90066 5.9422 2.70199.2085.47756.3128 1.07661.3128 1.79713 0 .7122-.1377 1.3238-.4129 1.8349-.2669.5027-.4754.8252-.6255.9676-.1501.1425-.3753.3394-.6755.5907-.3003.2514-.4504.3854-.4504.4022.0084.0167.2961.2052.8632.5655 1.4428.9049 2.1642 2.1574 2.1642 3.7577-.0083 3.4853-2.4686 5.228-7.3809 5.228z"/><path d="m59.5918 21.9282c.467 0 .8882-.1885 1.2635-.5655s.5629-.7499.5629-1.1185c.0167-.1006.0251-.1718.0251-.2137l.025-.4398c0-.0754 0-.1508 0-.2262l.0125-.2891v-.2262c0-.5362-.2252-.8043-.6755-.8043h-.4379l-.0751.0126h-.1501c-.9591 0-1.7097.1717-2.2518.5152-.5421.3352-.8131.7834-.8131 1.3447v.3017c0 .4608.1459.8629.4378 1.2064.3003.3352.6589.5027 1.0759.5027l.3628.0377h.2877c.1501-.0251.2669-.0377.3503-.0377zm5.8422.9677c-.0084.7038-.5797 1.0557-1.7139 1.0557-.5671 0-1.0675-.1131-1.5012-.3393-.4337-.2346-.8173-.3519-1.1509-.3519-.0251 0-.4379.155-1.2385.465-.8007.3016-1.5388.4524-2.2143.4524-1.1342 0-2.0558-.3226-2.7647-.9677-.7006-.6451-1.0508-1.4871-1.0508-2.5261v-.3016c0-2.3626 1.8139-3.7116 5.4418-4.0467.6589-.0586 1.1176-.1298 1.3761-.2136.4921-.1676.7381-.532.7381-1.0934 0-.5697-.2294-1.0138-.6881-1.3321-.2752-.1927-.6421-.2891-1.1008-.2891s-1.1259.1927-2.0016.5781c-.8674.377-1.4804.5655-1.839.5655s-.638-.1256-.8382-.377c-.2001-.2513-.3002-.5571-.3002-.9174 0-.6116.4879-1.1227 1.4637-1.5332.9841-.4106 2.0558-.6158 3.215-.6158 2.2185 0 3.728.5781 4.5286 1.7343.3587.5111.588 1.0892.6881 1.7343.1084.6367.1626 1.7133.1626 3.2298 0 1.5081.0292 2.4255.0876 2.7523.0667.3267.2002.687.4003 1.0808.2002.3854.3003.7163.3003.9928z"/><path d="m68.8838 11.4973h.4378c.8841.0083 1.4929.2974 1.8265.8671.1084.1843.2127.2765.3127.2765.1085 0 .3211-.1005.638-.3016.317-.2011.6506-.3854 1.0008-.553.3503-.1759.8007-.2639 1.3511-.2639.5505 0 .9591.1257 1.226.377.2752.243.4128.5488.4128.9174 0 .3603-.1167.7122-.3502 1.0557-.2336.3351-.538.5027-.9133.5027l-1.5387-.1634c-.2585 0-.563.1089-.9132.3268-.342.2178-.6172.5613-.8257 1.0305s-.3127 1.2065-.3127 2.2119c0 .997.1125 1.9228.3377 2.7774.2252.8378.3378 1.4913.3378 1.9605 0 .9384-.8549 1.4075-2.5646 1.4075h-.2376c-1.1593 0-1.7389-.4398-1.7389-1.3195 0-.2598.0834-.6452.2502-1.1562.1751-.5195.2794-.9426.3127-1.2694.0417-.3351.0626-1.2651.0626-2.7899 0-1.5249-.0292-2.4507-.0876-2.7774-.0584-.3351-.1793-.6787-.3628-1.0305-.1835-.3603-.2752-.6913-.2752-.9929s.1418-.5571.4253-.7666c.2836-.2178.6797-.3267 1.1885-.3267z"/><path d="m79.114 23.7379c-.6088 0-1.0342-.1089-1.276-.3267-.2419-.2179-.3628-.5949-.3628-1.1311 0-.134.0417-.4105.1251-.8294.1585-.796.2377-1.7218.2377-2.7774v-3.1419l.0125-1.2819v-3.6194c0-1.13944-.025-1.83065-.0751-2.07362-.0417-.24297-.1251-.59485-.2502-1.05566-.1251-.46918-.1876-.74985-.1876-.84202v-.35188c0-.1927.1459-.38122.4378-.56554.3003-.1927.9008-.28905 1.8015-.28905.6505 0 1.0633.23878 1.2385.71634.1751.46919.2627 1.81809.2627 4.04673 0 2.2286.025 3.5733.075 4.0341.0834.7373.2961 1.106.638 1.106.2919 0 .8674-.5027 1.7264-1.5081.2085-.243.4629-.5865.7631-1.0306.3003-.4524.5963-.7833.8882-.9928.2919-.2094.7673-.3142 1.4262-.3142 1.1426 0 1.7139.2137 1.7139.641 0 .4189-.5797 1.1981-1.7389 2.3375-1.1593 1.1395-1.7389 1.9647-1.7389 2.4758 0 .1927.7256 1.2609 2.1767 3.2047 1.4512 1.9437 2.1768 3.0162 2.1768 3.2172 0 .3268-.3128.4902-.9383.4902h-.3878c-1.201 0-2.0391-.2388-2.5145-.7164-.1918-.1927-.4712-.6577-.8382-1.395-.3669-.7372-.7965-1.4368-1.2885-2.0987-.4921-.6703-.9132-1.0054-1.2635-1.0054-.1084 0-.2586.1424-.4504.4273-.1835.2765-.2752.775-.2752 1.4955l.1626 1.7469c0 .9383-.7589 1.4075-2.2768 1.4075z"/><path d="m93.9479 15.1669c0 .9636.1251 1.8433.3753 2.6392.2586.7876.5546 1.4159.8882 1.8851.342.4608.8591.8672 1.5513 1.2191.6922.3518 1.4136.5278 2.1642.5278.7589 0 1.3511-.2095 1.7761-.6284.434-.4189.651-.93.651-1.5332s-.284-1.1855-.851-1.7469c-.5586-.5697-.838-1.0179-.838-1.3447 0-.1173.0584-.2346.1751-.3519.2999-.3016.9799-.4524 2.0389-.4524 1.068 0 1.823.1089 2.265.3267.442.2095.663.574.663 1.0934 0 3.2927-.284 5.2741-.851 5.9444-.359.4273-1.076.7834-2.152 1.0682-1.067.2849-2.2099.4273-3.4275.4273-2.502 0-4.4411-.8001-5.8172-2.4004-.6088-.7121-1.105-1.663-1.4887-2.8528-.3836-1.1981-.5754-2.4967-.5754-3.8959 0-4.298 1.6513-7.10474 4.9539-8.42013.9591-.3854 2.06-.5781 3.3027-.5781h.4879c1.6093 0 2.7483.17175 3.4153.51526.667.33514 1.117.69121 1.351 1.06824.233.36864.35.6535.35.85458 0 .61161-.117 1.03053-.35 1.25674-.225.21781-.425.32671-.601.32671-.166 0-.796-.2136-1.889-.64089-1.084-.4273-2.0095-.64094-2.7767-.64094-1.593 0-2.819.59486-3.678 1.78453-.7422 1.0222-1.1134 2.5387-1.1134 4.5494z"/><path d="m108.757 11.4973h.438c.884.0083 1.493.2974 1.826.8671.109.1843.213.2765.313.2765.108 0 .321-.1005.638-.3016s.65-.3854 1.001-.553c.35-.1759.8-.2639 1.351-.2639.55 0 .959.1257 1.226.377.275.243.413.5488.413.9174 0 .3603-.117.7122-.351 1.0557-.233.3351-.538.5027-.913.5027l-1.539-.1634c-.258 0-.563.1089-.913.3268-.342.2178-.617.5613-.826 1.0305-.208.4692-.312 1.2065-.312 2.2119 0 .997.112 1.9228.337 2.7774.226.8378.338 1.4913.338 1.9605 0 .9384-.855 1.4075-2.564 1.4075h-.238c-1.159 0-1.739-.4398-1.739-1.3195 0-.2598.084-.6452.25-1.1562.175-.5195.28-.9426.313-1.2694.042-.3351.063-1.2651.063-2.7899 0-1.5249-.03-2.4507-.088-2.7774-.058-.3351-.179-.6787-.363-1.0305-.183-.3603-.275-.6913-.275-.9929s.142-.5571.425-.7666c.284-.2178.68-.3267 1.189-.3267z"/><path d="m118.787 11.4973h.438c.884.0083 1.493.2974 1.826.8671.109.1843.213.2765.313.2765.108 0 .321-.1005.638-.3016s.65-.3854 1.001-.553c.35-.1759.8-.2639 1.351-.2639.55 0 .959.1257 1.226.377.275.243.413.5488.413.9174 0 .3603-.117.7122-.351 1.0557-.233.3351-.538.5027-.913.5027l-1.539-.1634c-.258 0-.563.1089-.913.3268-.342.2178-.617.5613-.825 1.0305-.209.4692-.313 1.2065-.313 2.2119 0 .997.112 1.9228.338 2.7774.225.8378.337 1.4913.337 1.9605 0 .9384-.855 1.4075-2.564 1.4075h-.238c-1.159 0-1.739-.4398-1.739-1.3195 0-.2598.084-.6452.25-1.1562.176-.5195.28-.9426.313-1.2694.042-.3351.063-1.2651.063-2.7899 0-1.5249-.03-2.4507-.088-2.7774-.058-.3351-.179-.6787-.363-1.0305-.183-.3603-.275-.6913-.275-.9929s.142-.5571.425-.7666c.284-.2178.68-.3267 1.189-.3267z"/></g><path clip-rule="evenodd" d="m8.94554 6.78283c-1.5443-1.55139-1.5443-4.06668 0-5.61807 1.54426-1.551386 4.04806-1.551386 5.59236 0 1.5443 1.55139 1.5443 4.06668 0 5.61807s-4.0481 1.55139-5.59236 0zm11.11306-5.33669c-1.5443 1.55139-1.5443 4.06668 0 5.61807s4.0481 1.55139 5.5924 0 1.5443-4.06668 0-5.61807c-1.5443-1.551385-4.0481-1.551385-5.5924 0zm-4.5597 10.29776 8.3743-.0184c1.6141-.0041 3.1304.624 4.2692 1.7681 1.1387 1.1439 1.7638 2.6673 1.7601 4.2889-.0034 1.6216-.6354 3.147-1.7791 4.296-1.1437 1.1489-2.9971 1.4436-4.6113 1.4473h-.0471v.0474c-.0034 1.6216-.2965 3.483-1.4404 4.6321-1.1437 1.1489-2.6625 1.7839-4.2766 1.7875-3.3317.0075-6.0366-2.7098-6.0293-6.0571l.0186-8.4131c.0046-2.085 1.686-3.7741 3.7616-3.7787zm-13.9613 13.9263c-1.54430196-1.5514-1.54430196-4.0667 0-5.6181 1.54429-1.5513 4.0481-1.5513 5.5924 0 1.54429 1.5514 1.54429 4.0667 0 5.6181-1.5443 1.5514-4.04811 1.5514-5.5924 0zm-.35716-16.4786c-1.544298 1.5514-1.544298 4.0667 0 5.6181 1.5443 1.5514 4.0481 1.5514 5.5924 0s1.5443-4.0667 0-5.6181c-1.5443-1.55139-4.0481-1.55139-5.5924 0z" fill="#92644d" fill-rule="evenodd"/></svg>